<svg display="block" role="presentation" viewBox="0 0 344 52" xmlns="http://www.w3.org/2000/svg"><path d="M 25.333 8.667 C 25.333 13.453 21.453 17.333 16.667 17.333 C 15.667 17.333 14.707 17.164 13.814 16.853 L 11.448 19.219 C 10.948 19.719 10.269 20 9.562 20 L 8.667 20 C 8.299 20 8 20.298 8 20.667 L 8 21.562 C 8 22.269 7.719 22.948 7.219 23.448 L 6.505 24.162 C 5.755 24.912 4.737 25.333 3.676 25.333 L 1.333 25.333 C 0.597 25.333 0 24.736 0 24 L 0 21.657 C 0 20.596 0.421 19.579 1.172 18.828 L 8.48 11.519 C 8.169 10.626 8 9.666 8 8.667 C 8 3.88 11.88 0 16.667 0 C 21.453 0 25.333 3.88 25.333 8.667 Z M 16.667 6.667 C 15.562 6.667 14.667 7.562 14.667 8.667 C 14.667 9.771 15.562 10.667 16.667 10.667 C 17.771 10.667 18.667 9.771 18.667 8.667 C 18.667 7.562 17.771 6.667 16.667 6.667 Z" fill="rgb(163, 163, 163)" height="25.3333px" id="K2JJW4oSr" transform="translate(4.5 12.667)" width="25.3333px"/><path d="M 0 28.68 C 0.027 27.187 0.293 25.867 0.8 24.72 C 1.307 23.573 2.027 22.52 2.96 21.56 C 3.92 20.573 5.213 19.48 6.84 18.28 L 9.84 16.04 C 11.467 14.813 12.747 13.613 13.68 12.44 C 14.613 11.267 15.08 9.947 15.08 8.48 C 15.08 6.96 14.627 5.733 13.72 4.8 C 12.84 3.867 11.627 3.4 10.08 3.4 C 8.373 3.4 7.027 3.987 6.04 5.16 C 5.08 6.307 4.6 7.933 4.6 10.04 L 4.6 10.48 L 0.32 10.48 L 0.32 9.8 C 0.32 7.8 0.733 6.067 1.56 4.6 C 2.387 3.107 3.533 1.973 5 1.2 C 6.493 0.4 8.187 0 10.08 0 C 11.893 0 13.493 0.36 14.88 1.08 C 16.267 1.773 17.333 2.76 18.08 4.04 C 18.853 5.32 19.24 6.8 19.24 8.48 C 19.24 10.613 18.613 12.507 17.36 14.16 C 16.107 15.787 14.147 17.587 11.48 19.56 L 9.56 21 C 8.12 22.067 7.093 22.88 6.48 23.44 C 5.867 24 5.48 24.493 5.32 24.92 L 19.56 24.92 L 19.56 28.68 Z M 27.546 28.68 L 23.306 28.68 L 23.306 0.68 L 41.986 0.68 L 41.986 4.24 L 27.546 4.24 L 27.546 12.64 L 41.266 12.64 L 41.266 16.2 L 27.546 16.2 Z M 67.649 28.68 L 62.929 28.68 L 59.849 20.6 L 47.529 20.6 L 44.489 28.68 L 39.969 28.68 L 51.289 0.68 L 56.289 0.68 Z M 48.889 17.04 L 58.529 17.04 L 54.609 6.76 L 53.729 4.24 C 53.463 5.067 53.143 5.907 52.769 6.76 Z M 99.142 28.68 L 94.422 28.68 L 91.342 20.6 L 79.022 20.6 L 75.982 28.68 L 71.462 28.68 L 82.782 0.68 L 87.782 0.68 Z M 80.382 17.04 L 90.022 17.04 L 86.102 6.76 L 85.222 4.24 C 84.955 5.067 84.635 5.907 84.262 6.76 Z M 107.137 29.32 C 104.977 29.32 103.27 28.653 102.017 27.32 C 100.79 25.987 100.177 24.093 100.177 21.64 L 100.177 9.32 L 104.177 9.32 L 104.177 20.88 C 104.177 24.4 105.537 26.16 108.257 26.16 C 109.724 26.16 110.87 25.653 111.697 24.64 C 112.524 23.6 112.937 22.16 112.937 20.32 L 112.937 9.32 L 116.857 9.32 L 116.857 28.68 L 112.977 28.68 L 112.977 27.64 C 112.977 26.893 112.99 26.347 113.017 26 C 112.537 27.013 111.777 27.827 110.737 28.44 C 109.724 29.027 108.524 29.32 107.137 29.32 Z M 128.428 28.96 C 126.641 28.96 125.228 28.48 124.188 27.52 C 123.148 26.533 122.628 25.013 122.628 22.96 L 122.628 12.52 L 118.708 12.52 L 118.708 9.32 L 122.628 9.32 L 122.628 2.68 L 126.628 2.68 L 126.628 9.32 L 130.908 9.32 L 130.908 12.52 L 126.628 12.52 L 126.628 22.48 C 126.628 24.533 127.575 25.56 129.468 25.56 C 129.921 25.56 130.401 25.52 130.908 25.44 L 130.908 28.64 C 130.108 28.853 129.281 28.96 128.428 28.96 Z M 133.393 28.68 L 133.393 0.68 L 137.353 0.68 L 137.353 10.24 C 137.353 10.987 137.34 11.573 137.313 12 C 137.847 11.013 138.633 10.213 139.673 9.6 C 140.713 8.987 141.9 8.68 143.233 8.68 C 145.447 8.68 147.167 9.373 148.393 10.76 C 149.647 12.12 150.273 14.013 150.273 16.44 L 150.273 28.68 L 146.313 28.68 L 146.313 17 C 146.313 13.56 144.94 11.84 142.193 11.84 C 140.753 11.84 139.58 12.347 138.673 13.36 C 137.793 14.373 137.353 15.627 137.353 17.12 L 137.353 28.68 Z M 162.6 29.32 C 160.707 29.32 159.027 28.893 157.56 28.04 C 156.093 27.187 154.947 25.987 154.12 24.44 C 153.32 22.867 152.92 21.053 152.92 19 C 152.92 16.973 153.333 15.187 154.16 13.64 C 154.987 12.067 156.133 10.853 157.6 10 C 159.067 9.12 160.733 8.68 162.6 8.68 C 164.467 8.68 166.133 9.12 167.6 10 C 169.067 10.853 170.213 12.067 171.04 13.64 C 171.867 15.187 172.28 16.973 172.28 19 C 172.28 21.053 171.867 22.867 171.04 24.44 C 170.213 25.987 169.067 27.187 167.6 28.04 C 166.133 28.893 164.467 29.32 162.6 29.32 Z M 162.6 26.2 C 164.307 26.2 165.667 25.56 166.68 24.28 C 167.693 22.973 168.2 21.213 168.2 19 C 168.2 16.813 167.68 15.08 166.64 13.8 C 165.627 12.493 164.28 11.84 162.6 11.84 C 160.92 11.84 159.56 12.493 158.52 13.8 C 157.507 15.08 157 16.813 157 19 C 157 21.213 157.507 22.973 158.52 24.28 C 159.533 25.56 160.893 26.2 162.6 26.2 Z M 175.159 28.68 L 175.159 9.32 L 179.119 9.32 L 179.119 10.4 C 179.119 11.413 179.106 12.16 179.079 12.64 C 179.586 11.467 180.346 10.52 181.359 9.8 C 182.372 9.053 183.586 8.68 184.999 8.68 C 185.399 8.68 185.706 8.693 185.919 8.72 L 185.919 12.64 C 185.626 12.56 185.226 12.52 184.719 12.52 C 182.932 12.52 181.546 13.027 180.559 14.04 C 179.599 15.053 179.119 16.6 179.119 18.68 L 179.119 28.68 Z M 187.521 5.92 L 187.521 1.44 L 191.921 1.44 L 191.921 5.92 Z M 187.761 9.32 L 191.721 9.32 L 191.721 28.68 L 187.761 28.68 Z M 194.392 28.68 L 194.392 25.28 L 204.672 13.68 L 205.832 12.44 L 194.792 12.44 L 194.792 9.32 L 210.112 9.32 L 210.112 12.76 L 199.872 24.28 C 199.339 24.867 198.925 25.293 198.632 25.56 L 210.432 25.56 L 210.432 28.68 Z M 218.641 29.32 C 217.441 29.32 216.321 29.08 215.281 28.6 C 214.268 28.12 213.454 27.427 212.841 26.52 C 212.254 25.613 211.961 24.56 211.961 23.36 C 211.961 19.947 214.241 17.893 218.801 17.2 L 222.441 16.64 C 223.188 16.533 223.708 16.347 224.001 16.08 C 224.321 15.787 224.481 15.36 224.481 14.8 C 224.481 13.867 224.148 13.12 223.481 12.56 C 222.814 12 221.934 11.72 220.841 11.72 C 219.534 11.72 218.494 12.053 217.721 12.72 C 216.974 13.387 216.574 14.293 216.521 15.44 L 212.481 15.44 C 212.561 14.187 212.934 13.053 213.601 12.04 C 214.268 11 215.188 10.187 216.361 9.6 C 217.561 8.987 218.961 8.68 220.561 8.68 C 223.148 8.68 225.094 9.36 226.401 10.72 C 227.734 12.08 228.401 14 228.401 16.48 L 228.401 28.68 L 224.641 28.68 L 224.641 27.76 C 224.641 27.413 224.668 26.84 224.721 26.04 C 224.214 27.053 223.441 27.853 222.401 28.44 C 221.361 29.027 220.108 29.32 218.641 29.32 Z M 219.441 26.28 C 220.908 26.28 222.121 25.827 223.081 24.92 C 224.041 23.987 224.521 22.773 224.521 21.28 L 224.521 18.72 C 224.228 19.04 223.494 19.32 222.321 19.56 L 220.001 20 C 217.361 20.507 216.041 21.6 216.041 23.28 C 216.041 24.213 216.361 24.947 217.001 25.48 C 217.641 26.013 218.454 26.28 219.441 26.28 Z M 239.53 28.96 C 237.743 28.96 236.33 28.48 235.29 27.52 C 234.25 26.533 233.73 25.013 233.73 22.96 L 233.73 12.52 L 229.81 12.52 L 229.81 9.32 L 233.73 9.32 L 233.73 2.68 L 237.73 2.68 L 237.73 9.32 L 242.01 9.32 L 242.01 12.52 L 237.73 12.52 L 237.73 22.48 C 237.73 24.533 238.676 25.56 240.57 25.56 C 241.023 25.56 241.503 25.52 242.01 25.44 L 242.01 28.64 C 241.21 28.853 240.383 28.96 239.53 28.96 Z M 244.255 5.92 L 244.255 1.44 L 248.655 1.44 L 248.655 5.92 Z M 244.495 9.32 L 248.455 9.32 L 248.455 28.68 L 244.495 28.68 Z M 261.006 29.32 C 259.113 29.32 257.433 28.893 255.966 28.04 C 254.5 27.187 253.353 25.987 252.526 24.44 C 251.726 22.867 251.326 21.053 251.326 19 C 251.326 16.973 251.74 15.187 252.566 13.64 C 253.393 12.067 254.54 10.853 256.006 10 C 257.473 9.12 259.14 8.68 261.006 8.68 C 262.873 8.68 264.54 9.12 266.006 10 C 267.473 10.853 268.62 12.067 269.446 13.64 C 270.273 15.187 270.686 16.973 270.686 19 C 270.686 21.053 270.273 22.867 269.446 24.44 C 268.62 25.987 267.473 27.187 266.006 28.04 C 264.54 28.893 262.873 29.32 261.006 29.32 Z M 261.006 26.2 C 262.713 26.2 264.073 25.56 265.086 24.28 C 266.1 22.973 266.606 21.213 266.606 19 C 266.606 16.813 266.086 15.08 265.046 13.8 C 264.033 12.493 262.686 11.84 261.006 11.84 C 259.326 11.84 257.966 12.493 256.926 13.8 C 255.913 15.08 255.406 16.813 255.406 19 C 255.406 21.213 255.913 22.973 256.926 24.28 C 257.94 25.56 259.3 26.2 261.006 26.2 Z M 273.565 28.68 L 273.565 9.32 L 277.525 9.32 L 277.525 10.48 C 277.525 11.12 277.512 11.627 277.485 12 C 278.019 11.04 278.805 10.253 279.845 9.64 C 280.912 9 282.099 8.68 283.405 8.68 C 285.619 8.68 287.339 9.373 288.565 10.76 C 289.819 12.12 290.445 14.013 290.445 16.44 L 290.445 28.68 L 286.485 28.68 L 286.485 17 C 286.485 13.56 285.139 11.84 282.445 11.84 C 280.979 11.84 279.792 12.347 278.885 13.36 C 277.979 14.373 277.525 15.627 277.525 17.12 L 277.525 28.68 Z" fill="rgb(163, 163, 163)" height="29.320000305175782px" id="dAncFsUmu" transform="translate(50.18 11.32)" width="290.44500244140625px"/></svg>