<svg display="block" role="presentation" viewBox="0 0 156 52" xmlns="http://www.w3.org/2000/svg"><g d="M 0 32 L 0 0 L 32 0 L 32 32 Z M 15.993 0.938 L 16.479 2.444 L 18.06 2.444 L 16.786 3.375 L 17.266 4.883 L 15.993 3.951 L 14.72 4.883 L 15.206 3.376 L 13.933 2.444 L 15.506 2.444 Z M 9.495 2.682 L 9.981 4.188 L 11.562 4.188 L 10.289 5.119 L 10.768 6.627 L 9.495 5.696 L 8.222 6.627 L 8.708 5.121 L 7.435 4.189 L 9.009 4.189 Z M 4.73 7.48 L 5.216 8.987 L 6.797 8.987 L 5.523 9.918 L 6.003 11.425 L 4.73 10.494 L 3.457 11.425 L 3.943 9.919 L 2.67 8.987 L 4.243 8.987 Z M 2.998 14.024 L 3.483 15.53 L 5.064 15.53 L 3.791 16.462 L 4.27 17.969 L 2.998 17.038 L 1.724 17.969 L 2.21 16.462 L 0.938 15.53 L 2.511 15.53 Z M 4.73 20.567 L 5.216 22.073 L 6.797 22.073 L 5.523 23.004 L 6.003 24.512 L 4.73 23.581 L 3.457 24.512 L 3.943 23.005 L 2.67 22.073 L 4.243 22.073 Z M 9.495 25.365 L 9.981 26.871 L 11.562 26.871 L 10.289 27.802 L 10.768 29.31 L 9.495 28.379 L 8.222 29.31 L 8.708 27.803 L 7.435 26.871 L 9.009 26.871 Z M 22.49 2.682 L 22.977 4.188 L 24.557 4.188 L 23.284 5.119 L 23.763 6.627 L 22.49 5.696 L 21.217 6.627 L 21.703 5.121 L 20.431 4.189 L 22.004 4.189 Z M 27.255 7.48 L 27.741 8.987 L 29.322 8.987 L 28.049 9.918 L 28.528 11.425 L 27.255 10.494 L 25.982 11.425 L 26.469 9.919 L 25.195 8.987 L 26.769 8.987 Z M 28.988 14.024 L 29.474 15.53 L 31.055 15.53 L 29.782 16.462 L 30.261 17.969 L 28.988 17.038 L 27.715 17.969 L 28.201 16.462 L 26.928 15.53 L 28.502 15.53 Z M 27.255 20.567 L 27.741 22.073 L 29.322 22.073 L 28.049 23.004 L 28.528 24.512 L 27.255 23.581 L 25.982 24.512 L 26.469 23.005 L 25.195 22.073 L 26.769 22.073 Z M 15.993 27.11 L 16.479 28.616 L 18.06 28.616 L 16.786 29.548 L 17.266 31.055 L 15.993 30.124 L 14.72 31.055 L 15.206 29.548 L 13.933 28.616 L 15.506 28.616 Z M 22.49 25.365 L 22.977 26.871 L 24.557 26.871 L 23.284 27.802 L 23.763 29.31 L 22.49 28.379 L 21.217 29.31 L 21.703 27.803 L 20.431 26.871 L 22.004 26.871 Z M 15.993 0.938 L 16.479 2.444 L 18.06 2.444 L 16.786 3.375 L 17.266 4.883 L 15.993 3.951 L 14.72 4.883 L 15.206 3.376 L 13.933 2.444 L 15.506 2.444 Z M 9.495 2.682 L 9.981 4.188 L 11.562 4.188 L 10.289 5.119 L 10.768 6.627 L 9.495 5.696 L 8.222 6.627 L 8.708 5.121 L 7.435 4.189 L 9.009 4.189 Z M 4.73 7.48 L 5.216 8.987 L 6.797 8.987 L 5.523 9.918 L 6.003 11.425 L 4.73 10.494 L 3.457 11.425 L 3.943 9.919 L 2.67 8.987 L 4.243 8.987 Z M 2.998 14.024 L 3.483 15.53 L 5.064 15.53 L 3.791 16.462 L 4.27 17.969 L 2.998 17.038 L 1.724 17.969 L 2.21 16.462 L 0.938 15.53 L 2.511 15.53 Z M 4.73 20.567 L 5.216 22.073 L 6.797 22.073 L 5.523 23.004 L 6.003 24.512 L 4.73 23.581 L 3.457 24.512 L 3.943 23.005 L 2.67 22.073 L 4.243 22.073 Z M 9.495 25.365 L 9.981 26.871 L 11.562 26.871 L 10.289 27.802 L 10.768 29.31 L 9.495 28.379 L 8.222 29.31 L 8.708 27.803 L 7.435 26.871 L 9.009 26.871 Z M 22.49 2.682 L 22.977 4.188 L 24.557 4.188 L 23.284 5.119 L 23.763 6.627 L 22.49 5.696 L 21.217 6.627 L 21.703 5.121 L 20.431 4.189 L 22.004 4.189 Z M 27.255 7.48 L 27.741 8.987 L 29.322 8.987 L 28.049 9.918 L 28.528 11.425 L 27.255 10.494 L 25.982 11.425 L 26.469 9.919 L 25.195 8.987 L 26.769 8.987 Z M 28.988 14.024 L 29.474 15.53 L 31.055 15.53 L 29.782 16.462 L 30.261 17.969 L 28.988 17.038 L 27.715 17.969 L 28.201 16.462 L 26.928 15.53 L 28.502 15.53 Z M 27.255 20.567 L 27.741 22.073 L 29.322 22.073 L 28.049 23.004 L 28.528 24.512 L 27.255 23.581 L 25.982 24.512 L 26.469 23.005 L 25.195 22.073 L 26.769 22.073 Z M 15.993 27.11 L 16.479 28.616 L 18.06 28.616 L 16.786 29.548 L 17.266 31.055 L 15.993 30.124 L 14.72 31.055 L 15.206 29.548 L 13.933 28.616 L 15.506 28.616 Z M 22.49 25.365 L 22.977 26.871 L 24.557 26.871 L 23.284 27.802 L 23.763 29.31 L 22.49 28.379 L 21.217 29.31 L 21.703 27.803 L 20.431 26.871 L 22.004 26.871 Z" fill="transparent" height="32px" id="bTnZ4JSv3" transform="translate(0.5 10)" width="32px"><path d="M 0 32 L 0 0 L 32 0 L 32 32 Z" fill="transparent" height="32px" id="meAn1zTg9" width="32px"/><path d="M 15.055 0 L 15.541 1.506 L 17.122 1.506 L 15.849 2.437 L 16.328 3.945 L 15.055 3.014 L 13.782 3.945 L 14.269 2.438 L 12.995 1.507 L 14.569 1.507 Z M 8.557 1.745 L 9.043 3.251 L 10.624 3.251 L 9.351 4.182 L 9.831 5.69 L 8.557 4.759 L 7.284 5.69 L 7.771 4.183 L 6.497 3.251 L 8.071 3.251 Z M 3.793 6.543 L 4.279 8.049 L 5.859 8.049 L 4.586 8.981 L 5.065 10.488 L 3.793 9.557 L 2.519 10.488 L 3.005 8.981 L 1.733 8.05 L 3.306 8.05 Z M 2.06 13.086 L 2.546 14.592 L 4.127 14.592 L 2.853 15.524 L 3.333 17.031 L 2.06 16.1 L 0.787 17.031 L 1.273 15.524 L 0 14.593 L 1.573 14.593 Z M 3.793 19.629 L 4.279 21.135 L 5.859 21.135 L 4.586 22.067 L 5.065 23.575 L 3.793 22.643 L 2.519 23.575 L 3.005 22.067 L 1.733 21.136 L 3.306 21.136 Z M 8.557 24.427 L 9.043 25.933 L 10.624 25.933 L 9.351 26.865 L 9.831 28.373 L 8.557 27.441 L 7.284 28.373 L 7.771 26.865 L 6.497 25.934 L 8.071 25.934 Z M 21.553 1.745 L 22.039 3.251 L 23.62 3.251 L 22.347 4.182 L 22.826 5.69 L 21.553 4.759 L 20.279 5.69 L 20.766 4.183 L 19.493 3.251 L 21.067 3.251 Z M 26.318 6.543 L 26.804 8.049 L 28.385 8.049 L 27.112 8.981 L 27.591 10.488 L 26.318 9.557 L 25.045 10.488 L 25.531 8.981 L 24.258 8.05 L 25.831 8.05 Z M 28.051 13.086 L 28.537 14.592 L 30.117 14.592 L 28.845 15.524 L 29.324 17.031 L 28.051 16.1 L 26.777 17.031 L 27.264 15.524 L 25.991 14.593 L 27.565 14.593 Z M 26.318 19.629 L 26.804 21.135 L 28.385 21.135 L 27.112 22.067 L 27.591 23.575 L 26.318 22.643 L 25.045 23.575 L 25.531 22.067 L 24.258 21.136 L 25.831 21.136 Z M 15.055 26.172 L 15.541 27.679 L 17.122 27.679 L 15.849 28.61 L 16.328 30.117 L 15.055 29.186 L 13.782 30.117 L 14.269 28.611 L 12.995 27.679 L 14.569 27.679 Z M 21.553 24.427 L 22.039 25.933 L 23.62 25.933 L 22.347 26.865 L 22.826 28.373 L 21.553 27.441 L 20.28 28.373 L 20.766 26.865 L 19.493 25.934 L 21.067 25.934 Z" fill="rgb(163, 163, 163)" height="30.11730088500977px" id="iN4PNdJjp" transform="translate(0.938 0.938)" width="30.117299768066406px"/><path d="M 15.055 0 L 15.541 1.506 L 17.122 1.506 L 15.849 2.437 L 16.328 3.945 L 15.055 3.014 L 13.782 3.945 L 14.269 2.438 L 12.995 1.507 L 14.569 1.507 Z M 8.557 1.745 L 9.043 3.251 L 10.624 3.251 L 9.351 4.182 L 9.831 5.69 L 8.557 4.759 L 7.284 5.69 L 7.771 4.183 L 6.497 3.251 L 8.071 3.251 Z M 3.793 6.543 L 4.279 8.049 L 5.859 8.049 L 4.586 8.981 L 5.065 10.488 L 3.793 9.557 L 2.519 10.488 L 3.005 8.981 L 1.733 8.05 L 3.306 8.05 Z M 2.06 13.086 L 2.546 14.592 L 4.127 14.592 L 2.853 15.524 L 3.333 17.031 L 2.06 16.1 L 0.787 17.031 L 1.273 15.524 L 0 14.593 L 1.573 14.593 Z M 3.793 19.629 L 4.279 21.135 L 5.859 21.135 L 4.586 22.067 L 5.065 23.575 L 3.793 22.643 L 2.519 23.575 L 3.005 22.067 L 1.733 21.136 L 3.306 21.136 Z M 8.557 24.427 L 9.043 25.933 L 10.624 25.933 L 9.351 26.865 L 9.831 28.373 L 8.557 27.441 L 7.284 28.373 L 7.771 26.865 L 6.497 25.934 L 8.071 25.934 Z M 21.553 1.745 L 22.039 3.251 L 23.62 3.251 L 22.347 4.182 L 22.826 5.69 L 21.553 4.759 L 20.279 5.69 L 20.766 4.183 L 19.493 3.251 L 21.067 3.251 Z M 26.318 6.543 L 26.804 8.049 L 28.385 8.049 L 27.112 8.981 L 27.591 10.488 L 26.318 9.557 L 25.045 10.488 L 25.531 8.981 L 24.258 8.05 L 25.831 8.05 Z M 28.051 13.086 L 28.537 14.592 L 30.117 14.592 L 28.845 15.524 L 29.324 17.031 L 28.051 16.1 L 26.777 17.031 L 27.264 15.524 L 25.991 14.593 L 27.565 14.593 Z M 26.318 19.629 L 26.804 21.135 L 28.385 21.135 L 27.112 22.067 L 27.591 23.575 L 26.318 22.643 L 25.045 23.575 L 25.531 22.067 L 24.258 21.136 L 25.831 21.136 Z M 15.055 26.172 L 15.541 27.679 L 17.122 27.679 L 15.849 28.61 L 16.328 30.117 L 15.055 29.186 L 13.782 30.117 L 14.269 28.611 L 12.995 27.679 L 14.569 27.679 Z M 21.553 24.427 L 22.039 25.933 L 23.62 25.933 L 22.347 26.865 L 22.826 28.373 L 21.553 27.441 L 20.28 28.373 L 20.766 26.865 L 19.493 25.934 L 21.067 25.934 Z" fill="transparent" height="30.11730088500977px" id="szL2Yp8Zq" stroke-dasharray="" stroke-linecap="butt" stroke-linejoin="miter" stroke-miterlimit="10" stroke-width="0.57078" stroke="rgb(163, 163, 163)" transform="translate(0.938 0.938)" width="30.117299768066406px"/></g><path d="M 13.24 29.32 C 10.6 29.32 8.28 28.707 6.28 27.48 C 4.28 26.227 2.733 24.507 1.64 22.32 C 0.547 20.107 0 17.587 0 14.76 C 0 11.747 0.6 9.133 1.8 6.92 C 3 4.68 4.64 2.973 6.72 1.8 C 8.827 0.6 11.173 0 13.76 0 C 15.893 0 17.8 0.387 19.48 1.16 C 21.187 1.933 22.56 3 23.6 4.36 C 24.64 5.72 25.253 7.267 25.44 9 L 21 9 C 20.733 7.4 19.947 6.107 18.64 5.12 C 17.333 4.107 15.72 3.6 13.8 3.6 C 11.96 3.6 10.333 4.04 8.92 4.92 C 7.507 5.773 6.4 7.04 5.6 8.72 C 4.8 10.4 4.4 12.413 4.4 14.76 C 4.4 16.92 4.787 18.84 5.56 20.52 C 6.333 22.173 7.413 23.467 8.8 24.4 C 10.213 25.307 11.827 25.76 13.64 25.76 C 16.067 25.76 18.013 25.08 19.48 23.72 C 20.947 22.333 21.68 20.4 21.68 17.92 L 21.68 17.52 L 13.32 17.52 L 13.32 13.92 L 25.56 13.92 L 25.56 28.68 L 21.88 28.68 L 21.88 27.56 C 21.88 26.68 21.92 25.787 22 24.88 C 21.227 26.187 20.067 27.253 18.52 28.08 C 17 28.907 15.24 29.32 13.24 29.32 Z M 29.749 28.68 L 29.749 0.68 L 38.709 0.68 C 43.456 0.68 47.136 1.84 49.749 4.16 C 52.389 6.48 53.709 9.987 53.709 14.68 C 53.709 17.533 53.163 20.013 52.069 22.12 C 50.976 24.2 49.349 25.813 47.189 26.96 C 45.029 28.107 42.403 28.68 39.309 28.68 Z M 38.909 25.08 C 42.216 25.08 44.776 24.24 46.589 22.56 C 48.403 20.853 49.309 18.227 49.309 14.68 C 49.309 11.293 48.443 8.707 46.709 6.92 C 44.976 5.133 42.336 4.24 38.789 4.24 L 33.989 4.24 L 33.989 25.08 Z M 57.468 28.68 L 57.468 0.68 L 68.708 0.68 C 71.615 0.68 73.975 1.32 75.788 2.6 C 77.628 3.88 78.548 5.947 78.548 8.8 C 78.548 11.653 77.641 13.72 75.828 15 C 74.015 16.28 71.641 16.92 68.708 16.92 L 61.708 16.92 L 61.708 28.68 Z M 68.668 13.32 C 72.348 13.32 74.188 11.813 74.188 8.8 C 74.188 5.76 72.348 4.24 68.668 4.24 L 61.708 4.24 L 61.708 13.32 Z M 81.398 28.68 L 81.398 0.68 L 93.478 0.68 C 96.198 0.68 98.358 1.32 99.958 2.6 C 101.558 3.88 102.358 5.693 102.358 8.04 C 102.358 9.747 101.838 11.2 100.798 12.4 C 99.758 13.6 98.531 14.413 97.118 14.84 C 98.558 15.08 99.691 15.773 100.518 16.92 C 101.371 18.04 101.798 19.493 101.798 21.28 L 101.798 28.68 L 97.558 28.68 L 97.558 22.08 C 97.558 20.107 97.144 18.733 96.318 17.96 C 95.518 17.16 94.131 16.76 92.158 16.76 L 85.638 16.76 L 85.638 28.68 Z M 92.558 13.16 C 94.318 13.16 95.664 12.787 96.598 12.04 C 97.531 11.267 97.998 10.147 97.998 8.68 C 97.998 7.213 97.531 6.107 96.598 5.36 C 95.664 4.613 94.318 4.24 92.558 4.24 L 85.638 4.24 L 85.638 13.16 Z" fill="rgb(163, 163, 163)" height="29.32px" id="Je3s0lkFB" transform="translate(50.26 11.32)" width="102.35800262451173px"/></svg>