<svg display="block" role="presentation" viewBox="0 0 168 52" xmlns="http://www.w3.org/2000/svg"><path d="M 17.949 29.224 C 17.963 30.177 17.977 30.871 17.99 31.211 C 18.004 31.252 18.004 31.306 17.99 31.347 C 17.99 31.401 17.99 31.442 17.99 31.442 C 17.99 31.633 18.018 31.823 18.072 32 C 18.127 31.823 18.154 31.633 18.154 31.442 C 18.154 31.374 18.181 30.381 18.222 28.789 C 18.208 28.803 18.195 28.816 18.195 28.83 C 18.099 28.952 18.018 29.088 17.949 29.224 Z M 15.116 9.359 C 15.334 9.128 15.538 8.856 15.688 8.57 C 15.579 8.815 15.157 9.74 15.566 9.822 C 16.015 9.903 16.519 9.767 17.432 8.611 C 17.405 7.128 17.377 5.835 17.364 4.855 L 16.873 4.855 C 16.846 4.855 16.833 4.855 16.805 4.855 C 16.533 4.855 16.083 4.828 15.784 4.379 C 15.457 3.889 15.443 3.386 15.429 3.019 C 15.416 2.488 15.28 1.522 14.612 0.978 C 14.149 0.61 12.896 0.325 11.738 0.787 C 11.357 0.937 10.594 1.331 9.845 1.699 C 9.163 2.039 8.292 2.461 8.019 2.461 C 8.469 2.257 9.068 1.957 9.722 1.59 C 10.471 1.182 11.261 0.746 11.656 0.583 C 12.446 0.27 13.958 0.175 14.735 0.801 C 15.47 1.399 15.62 2.434 15.634 2.991 C 15.647 3.359 15.661 3.808 15.947 4.257 C 16.206 4.638 16.615 4.638 16.86 4.638 L 16.914 4.638 L 17.35 4.638 C 17.35 4.515 17.35 4.406 17.35 4.284 C 16.914 4.311 16.288 4.338 16.015 3.753 C 15.688 3.046 16.042 1.236 14.953 0.474 C 13.863 -0.288 12.119 -0.097 10.567 0.801 C 9.027 1.685 6.984 2.842 4.464 3.849 C 1.944 4.855 0.377 5.264 0.078 5.304 C -0.208 5.359 0.309 5.549 1.385 5.577 C 2.462 5.604 3.361 5.522 3.361 5.522 L 11.261 1.93 C 11.261 1.93 4.45 5.318 3.878 5.685 C 3.306 6.053 2.843 6.175 2.884 6.515 C 2.925 6.856 3.361 6.815 4.559 6.788 C 5.758 6.76 6.017 6.652 6.426 6.529 C 6.834 6.407 11.261 4.366 11.261 4.366 C 11.261 4.366 6.521 6.72 5.84 7.264 C 5.159 7.808 5.894 7.985 6.357 7.999 C 6.834 8.012 8.101 7.944 8.809 7.59 C 9.518 7.237 11.724 5.822 11.724 5.822 C 11.724 5.822 9.545 7.386 9.123 7.74 C 8.782 8.026 8.605 8.271 8.687 8.57 C 8.809 8.951 9.463 8.91 10.335 8.597 C 10.335 8.597 11.234 8.284 11.575 7.985 C 11.915 7.672 12.869 6.828 12.869 6.828 C 12.869 6.828 11.738 7.999 11.452 8.502 C 11.18 9.005 11.125 9.128 11.261 9.414 C 11.452 9.822 12.896 9.4 13.304 8.965 C 13.604 8.624 13.89 8.271 14.149 7.89 C 14.149 7.89 13.713 8.597 13.618 9.005 C 13.522 9.414 13.413 9.74 13.808 9.781 C 14.244 9.849 14.653 9.863 15.116 9.359 Z M 17.813 18.625 C 17.854 18.598 17.895 18.571 17.936 18.543 C 18.018 18.489 18.086 18.448 18.14 18.394 C 18.249 18.326 18.358 18.244 18.467 18.176 C 18.481 17.4 18.508 16.611 18.522 15.836 C 18.304 15.741 18.072 15.645 17.827 15.55 C 17.813 15.55 17.8 15.536 17.786 15.536 C 17.759 15.523 17.745 15.523 17.718 15.509 C 17.554 15.455 17.405 15.387 17.228 15.332 C 17.023 15.251 16.819 15.183 16.615 15.101 C 15.252 15.822 14.98 16.162 14.98 16.829 C 14.98 17.768 15.784 18.19 17.173 19.074 C 17.391 18.911 17.609 18.761 17.813 18.625 Z M 16.138 16.951 C 16.138 16.951 16.042 16.353 17.582 15.659 C 17.623 15.645 17.663 15.618 17.704 15.604 C 17.718 16.543 17.732 17.482 17.759 18.421 C 16.996 17.904 16.138 17.414 16.138 16.951 Z M 18.467 28.503 C 18.399 28.585 18.331 28.667 18.263 28.735 C 18.658 29.265 18.631 29.782 18.413 30.449 C 18.617 30.218 19.026 29.633 18.685 28.871 C 18.617 28.748 18.549 28.626 18.467 28.503 Z M 17.841 22.925 C 17.99 23.074 18.167 23.251 18.345 23.428 C 18.453 23.537 18.562 23.646 18.685 23.768 C 18.699 23.782 18.726 23.795 18.753 23.823 C 19.679 23.02 20.524 22.258 20.524 21.305 C 20.524 20.557 19.802 19.877 19.08 19.333 C 19.012 19.373 18.944 19.414 18.876 19.469 C 18.712 19.577 18.562 19.673 18.426 19.768 C 18.426 19.768 18.413 19.768 18.413 19.782 C 18.385 19.809 18.345 19.822 18.317 19.85 C 18.127 19.986 17.949 20.108 17.786 20.231 C 17.813 21.142 17.827 22.054 17.841 22.925 Z M 18.426 19.918 C 19.325 20.571 19.679 20.993 19.679 21.455 C 19.679 21.931 19.175 22.489 18.358 23.306 C 18.372 22.217 18.399 21.088 18.426 19.918 Z M 23.398 6.842 C 23.398 6.842 24.352 7.686 24.692 7.999 C 25.033 8.311 25.932 8.611 25.932 8.611 C 26.804 8.924 27.457 8.965 27.58 8.584 C 27.675 8.284 27.485 8.026 27.144 7.754 C 26.722 7.4 24.542 5.835 24.542 5.835 C 24.542 5.835 26.749 7.25 27.457 7.604 C 28.166 7.958 29.433 8.026 29.909 8.012 C 30.386 7.999 31.108 7.822 30.427 7.277 C 29.746 6.733 25.006 4.379 25.006 4.379 C 25.006 4.379 29.419 6.434 29.841 6.543 C 30.25 6.665 30.509 6.76 31.707 6.801 C 32.906 6.828 33.328 6.869 33.383 6.529 C 33.437 6.202 32.961 6.08 32.388 5.699 C 31.816 5.332 25.006 1.944 25.006 1.944 L 32.906 5.536 C 32.906 5.536 33.805 5.617 34.881 5.59 C 35.957 5.563 36.475 5.373 36.189 5.318 C 35.903 5.264 34.323 4.869 31.803 3.862 C 29.283 2.855 27.239 1.712 25.7 0.814 C 24.161 -0.07 22.404 -0.274 21.314 0.488 C 20.224 1.25 20.578 3.046 20.252 3.767 C 19.979 4.352 19.353 4.325 18.917 4.298 C 18.917 4.406 18.917 4.529 18.903 4.651 L 19.353 4.651 L 19.407 4.651 C 19.652 4.651 20.061 4.651 20.32 4.27 C 20.606 3.835 20.619 3.372 20.633 3.005 C 20.647 2.447 20.796 1.413 21.532 0.814 C 22.308 0.189 23.82 0.284 24.61 0.597 C 25.006 0.746 25.796 1.182 26.545 1.604 C 27.199 1.971 27.798 2.27 28.247 2.474 C 27.961 2.474 27.103 2.053 26.422 1.712 C 25.687 1.331 24.924 0.95 24.529 0.801 C 23.371 0.338 22.118 0.624 21.655 0.991 C 20.973 1.536 20.851 2.502 20.837 3.032 C 20.824 3.4 20.81 3.917 20.483 4.393 C 20.197 4.842 19.748 4.869 19.461 4.869 C 19.434 4.869 19.421 4.869 19.393 4.869 L 18.903 4.869 C 18.876 5.849 18.849 7.128 18.821 8.584 C 19.748 9.767 20.279 9.917 20.715 9.822 C 21.123 9.74 20.715 8.815 20.592 8.57 C 20.756 8.856 20.946 9.114 21.164 9.359 C 21.614 9.863 22.036 9.849 22.445 9.795 C 22.853 9.74 22.731 9.427 22.635 9.019 C 22.54 8.611 22.104 7.903 22.104 7.903 C 22.363 8.271 22.649 8.638 22.949 8.978 C 23.357 9.414 24.801 9.849 24.992 9.427 C 25.114 9.155 25.074 9.019 24.801 8.516 C 24.542 8.012 23.398 6.842 23.398 6.842 Z M 18.154 2.678 C 18.372 2.678 18.59 2.61 18.767 2.488 C 18.944 2.366 19.094 2.189 19.175 1.998 C 19.257 1.794 19.284 1.576 19.244 1.359 C 19.203 1.141 19.094 0.95 18.944 0.787 C 18.794 0.638 18.59 0.529 18.372 0.488 C 18.154 0.447 17.936 0.461 17.732 0.556 C 17.527 0.638 17.35 0.787 17.241 0.964 C 17.119 1.141 17.05 1.359 17.05 1.576 C 17.05 1.726 17.078 1.862 17.132 1.998 C 17.187 2.134 17.268 2.257 17.377 2.352 C 17.486 2.461 17.595 2.542 17.732 2.597 C 17.854 2.651 18.004 2.678 18.154 2.678 Z M 21.777 10.951 C 21.777 10.951 21.75 10.189 20.51 10.108 C 19.244 10.026 19.189 10.57 19.216 10.774 C 19.312 10.774 19.393 10.801 19.393 10.829 C 19.393 10.856 19.325 10.883 19.244 10.883 C 19.312 11.087 19.502 11.332 20.047 11.604 C 20.497 11.822 20.715 11.808 20.973 11.767 C 20.973 11.767 21.273 11.944 21.273 12.23 C 21.273 12.502 20.796 13.033 18.562 14.149 C 18.699 8.135 18.821 2.855 18.821 2.855 L 18.957 2.855 C 19.012 2.855 19.066 2.828 19.107 2.787 C 19.148 2.746 19.175 2.692 19.175 2.638 L 19.175 2.57 C 19.175 2.542 19.175 2.515 19.162 2.488 C 19.148 2.461 19.135 2.434 19.107 2.42 C 18.985 2.556 18.849 2.665 18.685 2.746 C 18.522 2.828 18.345 2.855 18.167 2.855 C 17.99 2.855 17.813 2.815 17.65 2.746 C 17.486 2.678 17.337 2.556 17.228 2.42 C 17.2 2.447 17.187 2.461 17.173 2.488 C 17.159 2.515 17.159 2.542 17.159 2.57 L 17.159 2.638 C 17.159 2.692 17.187 2.746 17.228 2.787 C 17.268 2.828 17.323 2.855 17.377 2.855 L 17.514 2.855 C 17.514 2.855 17.609 7.985 17.704 13.89 C 17.895 13.985 18.086 14.081 18.304 14.189 C 18.331 14.203 18.372 14.217 18.399 14.23 C 18.903 14.475 19.325 14.679 19.679 14.87 C 20.878 14.407 22.05 13.876 22.404 13.128 C 23.03 11.74 21.777 10.951 21.777 10.951 Z M 20.115 10.638 C 19.979 10.638 19.87 10.57 19.87 10.488 C 19.87 10.407 19.979 10.339 20.115 10.339 C 20.252 10.339 20.361 10.407 20.361 10.488 C 20.361 10.57 20.252 10.638 20.115 10.638 Z M 17.949 27.864 C 18.058 27.728 18.154 27.592 18.263 27.469 C 18.276 26.694 18.304 25.823 18.317 24.884 C 18.181 24.748 18.031 24.612 17.868 24.462 C 17.813 24.421 17.772 24.367 17.718 24.326 C 17.65 24.258 17.582 24.204 17.514 24.149 C 17.132 24.503 16.383 25.292 16.383 25.972 C 16.383 26.775 17.159 27.592 17.745 28.177 C 17.8 28.054 17.868 27.959 17.949 27.864 Z M 17.868 24.625 C 17.895 25.782 17.909 26.843 17.922 27.755 C 17.473 27.156 16.996 26.544 16.996 26.122 C 16.996 25.728 17.228 25.279 17.868 24.625 Z M 18.181 14.366 C 15.525 13.087 14.98 12.502 14.98 12.216 C 14.98 11.931 15.28 11.754 15.28 11.754 C 15.538 11.808 15.756 11.808 16.206 11.591 C 16.751 11.332 16.941 11.074 17.01 10.869 C 16.928 10.869 16.86 10.842 16.86 10.815 C 16.86 10.788 16.941 10.761 17.037 10.761 L 17.037 10.747 C 17.05 10.543 16.982 10.012 15.729 10.094 C 14.49 10.176 14.462 10.937 14.462 10.937 C 14.462 10.937 13.209 11.74 13.863 13.101 C 14.435 14.312 17.119 14.951 18.671 15.645 C 20.211 16.339 20.115 16.938 20.115 16.938 C 20.115 17.455 19.08 17.999 18.263 18.571 C 17.445 19.142 15.716 20.135 15.716 21.305 C 15.716 22.38 16.792 23.21 17.841 24.136 C 18.903 25.061 19.244 25.619 19.244 26.136 C 19.244 26.843 18.072 27.796 17.473 28.979 C 16.873 30.163 18.058 32 17.691 31.034 C 17.309 30.068 17.514 29.388 18.004 28.707 C 18.603 27.877 19.884 27.061 19.884 25.959 C 19.884 25.034 18.535 23.945 18.535 23.945 C 17.337 22.748 16.574 22.067 16.574 21.469 C 16.574 20.87 17.146 20.339 18.753 19.292 C 20.347 18.258 21.287 17.849 21.287 16.843 C 21.287 15.958 20.837 15.645 18.181 14.366 Z M 16.138 10.352 C 16.274 10.352 16.383 10.42 16.383 10.502 C 16.383 10.584 16.274 10.652 16.138 10.652 C 16.002 10.652 15.893 10.584 15.893 10.502 C 15.893 10.42 16.002 10.352 16.138 10.352 Z" fill="rgb(163, 163, 163)" height="32.00000609741211px" id="fq0q8RK8y" transform="translate(0.867 10)" width="36.26669358762392px"/><path d="M 4.24 28 L 0 28 L 0 0 L 4.24 0 L 4.24 11.64 L 18.4 11.64 L 18.4 0 L 22.64 0 L 22.64 28 L 18.4 28 L 18.4 15.24 L 4.24 15.24 Z M 27.953 0 L 32.193 0 L 32.193 28 L 27.953 28 Z M 37.547 28 L 37.547 0 L 48.787 0 C 51.693 0 54.053 0.64 55.867 1.92 C 57.707 3.2 58.627 5.267 58.627 8.12 C 58.627 10.973 57.72 13.04 55.907 14.32 C 54.093 15.6 51.72 16.24 48.787 16.24 L 41.787 16.24 L 41.787 28 Z M 48.747 12.64 C 52.427 12.64 54.267 11.133 54.267 8.12 C 54.267 5.08 52.427 3.56 48.747 3.56 L 41.787 3.56 L 41.787 12.64 Z M 83.765 28 L 79.045 28 L 75.965 19.92 L 63.645 19.92 L 60.605 28 L 56.085 28 L 67.405 0 L 72.405 0 Z M 65.005 16.36 L 74.645 16.36 L 70.725 6.08 L 69.845 3.56 C 69.578 4.387 69.258 5.227 68.885 6.08 Z M 110.273 28 L 105.553 28 L 102.473 19.92 L 90.153 19.92 L 87.113 28 L 82.593 28 L 93.913 0 L 98.913 0 Z M 91.513 16.36 L 101.153 16.36 L 97.233 6.08 L 96.353 3.56 C 96.086 4.387 95.766 5.227 95.393 6.08 Z" fill="rgb(163, 163, 163)" height="28px" id="ymFkBzbJ0" transform="translate(56.533 12)" width="110.27320068359376px"/></svg>