<svg display="block" role="presentation" viewBox="0 0 296 52" xmlns="http://www.w3.org/2000/svg"><g d="M 0 32 L 0 0 L 31.353 0 L 31.353 32 Z M 15.655 4.688 C 21.784 4.693 26.748 9.667 26.742 15.796 C 26.736 21.925 21.763 26.888 15.634 26.883 C 9.512 26.877 4.551 21.915 4.547 15.793 C 4.541 9.665 9.503 4.693 15.631 4.688 C 15.639 4.688 15.647 4.688 15.655 4.688 Z M 11.924 21.483 C 14.33 20.628 16.958 20.627 19.365 21.482 L 19.711 20.181 C 19.871 20.181 20.017 20.177 20.164 20.182 C 20.316 20.17 20.469 20.178 20.618 20.208 C 20.514 20.748 20.383 21.283 20.224 21.809 C 20.633 22.035 21.041 22.24 21.428 22.478 C 21.815 22.715 22.182 22.983 22.556 23.237 C 27.055 19.114 26.775 12.101 22.539 8.323 C 21.824 8.886 21.045 9.362 20.218 9.742 C 20.375 10.298 20.525 10.831 20.624 11.382 L 19.703 11.382 C 19.646 11.16 19.595 10.948 19.539 10.738 C 19.491 10.518 19.427 10.303 19.346 10.093 C 16.945 10.943 14.325 10.942 11.924 10.089 L 11.577 11.394 C 11.417 11.394 11.27 11.395 11.123 11.394 C 10.973 11.393 10.823 11.39 10.645 11.387 L 11.063 9.737 C 10.238 9.359 9.462 8.884 8.75 8.32 C 4.279 12.397 4.467 19.409 8.75 23.246 C 9.467 22.683 10.247 22.206 11.075 21.825 C 10.909 21.287 10.771 20.739 10.663 20.186 L 11.582 20.186 Z M 19.046 9.226 C 19.041 9.19 19.033 9.155 19.024 9.119 C 18.742 8.359 18.355 7.643 17.876 6.99 C 17.568 6.562 17.179 6.197 16.731 5.917 C 16.106 5.512 15.307 5.49 14.661 5.86 C 14.245 6.094 13.879 6.405 13.582 6.778 C 13.105 7.368 12.716 8.024 12.427 8.725 C 12.359 8.882 12.297 9.042 12.225 9.219 C 14.43 10.011 16.841 10.013 19.046 9.226 Z M 12.236 22.344 C 12.251 22.397 12.258 22.428 12.269 22.456 C 12.532 23.161 12.884 23.829 13.315 24.445 C 13.598 24.851 13.944 25.211 14.34 25.508 C 15.172 26.115 16.075 26.123 16.915 25.532 C 17.203 25.326 17.463 25.084 17.688 24.811 C 18.262 24.101 18.715 23.3 19.027 22.441 C 19.036 22.408 19.042 22.375 19.045 22.341 C 16.843 21.558 14.438 21.559 12.236 22.344 Z M 18.24 25.608 C 19.544 25.28 20.767 24.686 21.829 23.862 C 21.246 23.408 20.612 23.022 19.942 22.712 C 19.687 23.231 19.453 23.737 19.193 24.229 C 18.925 24.721 18.606 25.183 18.24 25.608 Z M 13.059 25.612 C 12.69 25.192 12.369 24.732 12.101 24.24 C 11.836 23.744 11.603 23.231 11.348 22.711 C 10.677 23.022 10.043 23.408 9.459 23.862 C 10.526 24.686 11.751 25.283 13.059 25.612 Z M 19.908 8.855 C 20.399 8.689 21.63 7.926 21.801 7.683 C 20.743 6.869 19.528 6.281 18.232 5.957 C 18.98 6.813 19.493 7.799 19.908 8.855 Z M 13.041 5.964 C 11.744 6.289 10.528 6.88 9.47 7.698 C 9.85 8.052 11.026 8.758 11.386 8.847 C 11.771 7.8 12.33 6.825 13.041 5.964 Z M 21.564 29.965 C 21.566 30.301 21.495 30.634 21.354 30.939 C 21.09 31.53 20.515 31.919 19.869 31.945 C 19.638 31.966 19.405 31.947 19.182 31.888 C 18.608 31.745 18.15 31.312 17.977 30.746 C 17.802 30.237 17.799 29.685 17.969 29.175 C 18.179 28.483 18.798 27.996 19.519 27.954 C 19.905 27.912 20.295 27.99 20.635 28.176 C 21.091 28.432 21.407 28.879 21.497 29.394 C 21.535 29.58 21.543 29.774 21.564 29.965 Z M 19.158 29.944 L 19.191 29.946 C 19.191 30.094 19.181 30.242 19.193 30.389 C 19.195 30.646 19.249 30.899 19.354 31.135 C 19.413 31.267 19.544 31.354 19.688 31.358 C 19.841 31.368 19.984 31.281 20.045 31.14 C 20.096 31.038 20.134 30.928 20.156 30.815 C 20.243 30.303 20.253 29.78 20.184 29.264 C 20.162 29.1 20.118 28.939 20.056 28.785 C 20.008 28.639 19.871 28.542 19.718 28.544 C 19.559 28.538 19.414 28.631 19.351 28.776 C 19.308 28.855 19.278 28.94 19.263 29.029 C 19.222 29.334 19.192 29.639 19.158 29.944 Z M 17.487 29.964 C 17.509 30.305 17.441 30.646 17.293 30.954 C 17.017 31.554 16.419 31.941 15.759 31.947 C 15.464 31.969 15.167 31.922 14.892 31.81 C 14.427 31.619 14.071 31.23 13.922 30.75 C 13.75 30.248 13.745 29.703 13.906 29.197 C 14.115 28.475 14.767 27.971 15.518 27.952 C 16.106 27.923 16.622 28.084 17.022 28.538 C 17.297 28.856 17.459 29.256 17.485 29.676 C 17.494 29.771 17.487 29.868 17.487 29.964 Z M 16.184 29.999 C 16.167 29.727 16.166 29.52 16.137 29.319 C 16.112 29.142 16.07 28.967 16.009 28.799 C 15.964 28.645 15.821 28.54 15.66 28.542 C 15.494 28.535 15.342 28.639 15.288 28.797 C 15.229 28.925 15.191 29.062 15.175 29.202 C 15.152 29.617 15.137 30.034 15.143 30.449 C 15.139 30.688 15.193 30.925 15.3 31.138 C 15.384 31.328 15.607 31.414 15.797 31.33 C 15.877 31.294 15.942 31.233 15.982 31.155 C 16.043 31.049 16.084 30.934 16.101 30.813 C 16.141 30.52 16.161 30.227 16.183 29.999 Z M 6.555 28.852 C 6.576 28.861 6.599 28.868 6.621 28.873 C 6.845 28.87 7.029 29.049 7.032 29.273 C 7.032 29.286 7.032 29.3 7.031 29.313 C 7.05 29.574 6.871 29.809 6.615 29.861 C 6.526 29.876 6.436 29.881 6.346 29.875 C 6.063 29.869 5.831 29.649 5.808 29.366 C 5.756 29.002 5.89 28.637 6.166 28.393 C 6.456 28.135 6.826 27.982 7.215 27.96 C 7.683 27.896 8.16 27.99 8.57 28.228 C 9.022 28.486 9.243 29.017 9.108 29.52 C 9.042 29.779 8.872 30 8.638 30.129 C 8.371 30.284 8.085 30.404 7.787 30.487 C 7.573 30.553 7.355 30.611 7.145 30.69 C 6.948 30.745 6.778 30.873 6.67 31.048 C 6.712 31.037 6.754 31.025 6.795 31.01 C 7.14 30.847 7.533 30.812 7.903 30.91 C 8.02 30.942 8.14 30.968 8.26 30.988 C 8.521 31.027 8.625 30.941 8.656 30.673 C 8.66 30.635 8.662 30.597 8.668 30.534 C 8.868 30.521 9.068 30.522 9.268 30.537 C 9.291 30.887 9.291 31.222 9.12 31.534 C 8.96 31.825 8.685 31.919 8.379 31.946 C 8.084 31.965 7.787 31.93 7.504 31.84 C 7.319 31.787 7.135 31.728 6.947 31.689 C 6.762 31.651 6.57 31.627 6.454 31.831 L 5.816 31.831 C 5.788 31.54 5.842 31.247 5.974 30.986 C 6.14 30.686 6.379 30.433 6.669 30.251 C 6.886 30.102 7.113 29.968 7.334 29.826 C 7.416 29.775 7.496 29.721 7.572 29.661 C 7.737 29.532 7.83 29.331 7.82 29.122 C 7.824 28.93 7.71 28.755 7.533 28.68 C 7.204 28.527 6.813 28.595 6.555 28.852 Z M 10.694 28.058 C 10.702 28.181 10.707 28.28 10.714 28.402 C 10.74 28.382 10.764 28.36 10.786 28.336 C 11.024 28.011 11.356 27.934 11.727 27.999 C 11.915 28.04 12.1 28.094 12.281 28.159 C 12.391 28.192 12.5 28.23 12.609 28.269 C 12.698 28.305 12.801 28.284 12.869 28.216 L 12.934 28.066 L 13.42 28.066 C 13.454 28.172 13.449 28.286 13.405 28.388 C 13.292 28.646 13.18 28.905 13.048 29.154 C 12.879 29.47 12.686 29.774 12.513 30.089 C 12.267 30.565 12.137 31.091 12.132 31.626 C 12.13 31.689 12.126 31.752 12.122 31.825 L 10.879 31.825 C 10.848 31.681 10.844 31.533 10.865 31.387 C 10.902 30.836 11.14 30.318 11.536 29.933 C 11.797 29.676 12.069 29.43 12.335 29.179 C 12.394 29.122 12.449 29.061 12.539 28.967 C 12.463 28.985 12.43 28.989 12.4 28.999 C 12.134 29.079 11.853 29.09 11.581 29.034 C 11.437 29.006 11.29 28.986 11.144 28.975 C 10.942 28.951 10.759 29.094 10.735 29.296 C 10.735 29.298 10.734 29.3 10.734 29.301 C 10.716 29.395 10.704 29.49 10.699 29.587 C 10.693 29.649 10.693 29.712 10.689 29.785 L 10.023 29.785 L 10.023 28.066 C 10.134 28.063 10.241 28.059 10.347 28.057 C 10.455 28.057 10.564 28.058 10.694 28.058 Z M 22.563 28.549 C 22.921 28.492 23.276 28.439 23.458 28.066 L 24.422 28.066 C 24.426 28.138 24.43 28.205 24.431 28.274 C 24.431 29.147 24.431 30.02 24.431 30.893 C 24.431 30.938 24.429 30.983 24.431 31.028 C 24.437 31.224 24.498 31.29 24.698 31.302 C 24.793 31.308 24.889 31.303 24.994 31.303 C 25.015 31.471 25.02 31.639 25.011 31.808 C 24.857 31.846 22.882 31.859 22.566 31.825 L 22.566 31.327 C 22.743 31.27 22.949 31.355 23.149 31.224 C 23.175 31.155 23.192 31.084 23.2 31.012 C 23.205 30.402 23.203 29.792 23.202 29.182 C 23.199 29.151 23.192 29.12 23.182 29.089 L 22.562 29.089 Z M 15.527 0.032 L 15.81 1.188 L 15.852 1.187 L 16.165 0.05 L 16.94 0.05 L 16.94 2.014 L 16.46 2.014 L 16.46 0.624 C 16.285 1.073 16.18 1.541 16.037 2.008 L 15.595 2.008 L 15.253 0.595 L 15.212 0.596 C 15.21 0.71 15.207 0.825 15.206 0.939 C 15.205 1.054 15.204 1.171 15.203 1.286 C 15.201 1.409 15.203 1.531 15.198 1.653 C 15.193 1.767 15.18 1.881 15.169 2.012 L 14.742 1.988 C 14.7 1.848 14.701 0.328 14.743 0.032 Z M 25.553 6.208 L 25.133 5.832 L 25.304 4.554 L 25.271 4.54 L 24.563 5.314 L 24.148 4.932 L 25.484 3.459 L 25.898 3.846 L 25.721 5.126 L 25.752 5.143 L 26.468 4.362 L 26.889 4.74 Z M 7.273 3.693 L 6.661 2.86 L 7.114 2.521 L 8.293 4.116 L 7.84 4.458 L 6.575 4.019 C 6.791 4.345 7.011 4.614 7.22 4.911 L 6.768 5.248 L 5.586 3.653 L 6.04 3.317 L 7.24 3.732 Z M 30.201 16.547 C 29.975 16.802 29.773 16.928 29.305 17.098 L 29.305 16.446 L 29.934 16.124 C 30.032 16.089 30.108 16.008 30.137 15.908 C 30.14 15.869 30.141 15.83 30.137 15.791 L 29.354 15.791 C 29.333 15.589 29.332 15.386 29.351 15.184 C 30.013 15.161 30.662 15.226 31.324 15.217 C 31.324 15.411 31.327 15.583 31.324 15.755 C 31.318 15.967 31.307 16.178 31.297 16.39 C 31.295 16.428 31.294 16.467 31.289 16.505 C 31.247 16.793 31.093 16.961 30.846 16.987 C 30.575 17.044 30.305 16.883 30.227 16.617 C 30.219 16.596 30.212 16.573 30.201 16.547 Z M 30.827 16.361 C 30.934 16.206 30.949 16.094 30.899 15.825 L 30.537 15.801 C 30.493 15.916 30.484 16.041 30.512 16.161 C 30.552 16.367 30.601 16.4 30.827 16.361 Z M 12.242 0.382 C 12.592 0.323 12.919 0.268 13.247 0.216 C 13.355 0.197 13.463 0.186 13.572 0.183 C 13.806 0.165 14.019 0.317 14.079 0.543 C 14.158 0.777 14.073 1.034 13.871 1.174 C 13.836 1.199 13.799 1.221 13.758 1.247 C 14.05 1.414 14.18 1.555 14.468 2.018 C 14.357 2.039 14.253 2.06 14.149 2.078 C 14.041 2.097 13.934 2.113 13.814 2.132 C 13.666 1.942 13.516 1.751 13.368 1.559 C 13.301 1.443 13.157 1.397 13.035 1.453 L 13.156 2.239 L 12.565 2.338 Z M 13.515 0.84 C 13.497 0.682 13.426 0.598 13.3 0.607 C 13.163 0.602 13.027 0.631 12.903 0.689 L 12.975 1.073 C 13.194 1.039 13.408 1.059 13.515 0.84 Z M 9.859 1.727 C 9.863 1.055 10.477 0.773 10.991 0.76 C 11.63 0.744 11.94 1.315 11.958 1.886 C 11.978 2.519 11.429 2.832 10.812 2.852 C 10.221 2.872 9.889 2.315 9.859 1.727 Z M 11.369 1.969 C 11.36 1.764 11.293 1.564 11.176 1.396 C 11.068 1.252 10.878 1.199 10.711 1.267 C 10.546 1.319 10.437 1.476 10.444 1.65 C 10.453 1.862 10.527 2.067 10.657 2.235 C 10.762 2.374 10.949 2.421 11.106 2.349 C 11.274 2.301 11.384 2.142 11.369 1.969 Z M 24.598 3.272 C 24.576 3.704 24.331 4.092 23.952 4.299 C 23.756 4.403 23.525 4.419 23.316 4.344 C 23.075 4.271 22.859 4.133 22.689 3.947 C 22.489 3.737 22.414 3.439 22.49 3.159 C 22.552 2.894 22.696 2.656 22.902 2.477 C 23.138 2.256 23.48 2.19 23.782 2.306 C 24.028 2.387 24.245 2.536 24.409 2.737 C 24.536 2.886 24.603 3.077 24.598 3.272 Z M 24.037 3.196 C 24.037 2.917 23.713 2.643 23.441 2.812 C 23.21 2.949 23.058 3.188 23.032 3.455 C 23.004 3.737 23.341 3.976 23.585 3.847 C 23.826 3.709 23.992 3.47 24.037 3.196 Z M 1.069 18.686 C 0.562 18.686 0.237 18.443 0.126 17.973 C 0.083 17.806 0.069 17.632 0.084 17.46 C 0.132 17.022 0.357 16.782 0.785 16.674 C 0.964 16.625 1.152 16.611 1.337 16.634 C 1.673 16.667 1.956 16.898 2.054 17.221 C 2.128 17.428 2.154 17.649 2.129 17.867 C 2.103 18.176 1.909 18.445 1.624 18.567 C 1.451 18.651 1.261 18.691 1.069 18.686 Z M 1.217 17.219 C 1.043 17.214 0.871 17.254 0.716 17.334 C 0.576 17.421 0.504 17.587 0.536 17.749 C 0.553 17.915 0.681 18.049 0.845 18.074 C 1.049 18.113 1.259 18.088 1.448 18.003 C 1.603 17.942 1.699 17.785 1.682 17.619 C 1.67 17.358 1.511 17.22 1.217 17.219 Z M 31.294 14.443 C 31.152 14.467 31.028 14.489 30.903 14.507 C 30.637 14.546 30.37 14.587 30.103 14.62 C 29.718 14.668 29.305 14.494 29.209 14.019 C 29.169 13.831 29.149 13.64 29.149 13.448 C 29.138 13.16 29.32 12.9 29.595 12.814 C 29.797 12.751 30.003 12.707 30.213 12.68 C 30.472 12.638 30.733 12.609 30.994 12.574 C 31.069 12.76 31.1 12.961 31.084 13.161 C 30.81 13.201 30.532 13.24 30.253 13.281 C 30.132 13.298 30.01 13.307 29.892 13.334 C 29.705 13.358 29.574 13.529 29.599 13.715 C 29.604 13.757 29.617 13.796 29.637 13.833 C 29.68 13.96 29.806 14.04 29.939 14.024 C 30.106 14.011 30.27 13.988 30.436 13.966 C 30.645 13.937 30.855 13.903 31.064 13.875 C 31.112 13.872 31.159 13.872 31.207 13.874 Z M 29.021 9.961 L 28.592 9.1 L 28.228 9.28 L 28.695 10.228 L 28.316 10.421 C 28.298 10.399 28.282 10.375 28.267 10.351 C 28.036 9.885 27.806 9.419 27.562 8.929 L 29.347 8.05 L 30.07 9.519 L 29.706 9.703 L 29.241 8.78 L 28.946 8.922 L 29.367 9.784 Z M 28.534 7.754 L 28.21 7.342 C 28.316 7.088 28.289 6.919 28.133 6.828 C 28.046 6.777 28.007 6.792 27.904 6.921 L 27.99 7.182 C 28.043 7.34 28.105 7.496 28.145 7.657 C 28.21 7.859 28.148 8.08 27.989 8.221 C 27.822 8.381 27.578 8.431 27.361 8.352 C 27.276 8.323 27.197 8.279 27.127 8.222 C 26.902 8.038 26.736 7.791 26.652 7.512 C 26.571 7.246 26.677 6.958 26.91 6.806 L 27.246 7.229 C 27.156 7.359 27.068 7.491 27.143 7.653 C 27.184 7.772 27.287 7.858 27.411 7.876 C 27.584 7.81 27.628 7.74 27.585 7.575 C 27.559 7.476 27.508 7.384 27.484 7.285 C 27.44 7.125 27.41 6.962 27.393 6.797 C 27.37 6.468 27.722 6.247 28.016 6.326 C 28.085 6.342 28.151 6.37 28.21 6.408 C 28.499 6.607 28.699 6.911 28.766 7.256 C 28.799 7.428 28.722 7.584 28.534 7.754 Z M 0.934 19.283 L 1.124 19.799 C 0.98 19.907 0.902 20.035 0.984 20.214 C 1.032 20.319 1.067 20.34 1.211 20.335 C 1.314 20.256 1.286 20.143 1.285 20.035 C 1.276 19.838 1.278 19.639 1.29 19.442 C 1.336 18.969 1.902 18.825 2.239 19.083 C 2.312 19.137 2.373 19.203 2.422 19.279 C 2.596 19.552 2.673 19.876 2.64 20.199 C 2.609 20.455 2.431 20.594 2.195 20.704 L 2 20.189 C 2.312 19.919 2.309 19.649 1.997 19.51 C 1.826 19.561 1.793 19.594 1.787 19.757 C 1.782 19.885 1.796 20.015 1.79 20.143 C 1.789 20.264 1.775 20.386 1.749 20.505 C 1.683 20.774 1.411 20.94 1.141 20.874 C 1.078 20.859 1.02 20.832 0.967 20.794 C 0.897 20.748 0.837 20.689 0.79 20.62 C 0.611 20.357 0.53 20.04 0.561 19.723 C 0.589 19.516 0.734 19.344 0.934 19.283 Z M 19.274 2.456 L 18.67 2.34 C 18.651 2.213 18.635 2.108 18.619 1.997 L 17.934 1.867 L 17.753 2.169 L 17.164 2.052 L 18.265 0.246 L 18.911 0.369 C 19.042 1.053 19.157 1.738 19.274 2.456 Z M 18.573 1.567 C 18.57 1.325 18.531 1.085 18.458 0.854 L 18.132 1.475 Z M 3.007 9.632 C 2.901 9.607 2.793 9.591 2.69 9.557 C 2.441 9.473 2.208 9.344 2.004 9.177 C 1.738 8.996 1.643 8.647 1.783 8.356 C 1.827 8.243 1.887 8.135 1.96 8.038 C 2.103 7.831 2.359 7.734 2.604 7.792 C 2.952 7.863 3.274 8.027 3.536 8.266 C 3.789 8.456 3.862 8.804 3.705 9.08 C 3.65 9.195 3.583 9.304 3.502 9.404 C 3.38 9.55 3.198 9.634 3.007 9.632 Z M 3.082 9.127 C 3.223 9.132 3.301 9.094 3.338 9.005 C 3.381 8.906 3.352 8.791 3.266 8.726 C 3.025 8.514 2.739 8.36 2.429 8.276 C 2.326 8.242 2.214 8.286 2.163 8.382 C 2.116 8.462 2.124 8.563 2.184 8.634 C 2.202 8.66 2.224 8.683 2.25 8.703 C 2.472 8.877 2.721 9.014 2.986 9.109 C 3.017 9.118 3.049 9.124 3.082 9.127 Z M 29.595 11.8 L 29.595 12.295 C 29.271 12.378 28.934 12.22 28.791 11.917 C 28.697 11.734 28.641 11.533 28.628 11.328 C 28.599 10.997 28.768 10.682 29.06 10.524 C 29.284 10.384 29.546 10.313 29.812 10.32 C 30.034 10.32 30.245 10.415 30.393 10.58 C 30.61 10.823 30.723 11.141 30.708 11.466 C 30.695 11.721 30.555 11.951 30.336 12.081 L 30.071 11.624 C 30.096 11.597 30.118 11.574 30.138 11.55 C 30.281 11.393 30.269 11.151 30.113 11.008 C 30.029 10.931 29.916 10.896 29.804 10.911 C 29.621 10.945 29.445 11.004 29.278 11.085 C 29.129 11.151 29.052 11.317 29.101 11.473 C 29.126 11.631 29.25 11.754 29.408 11.778 C 29.463 11.789 29.52 11.791 29.595 11.8 Z M 2.129 11.395 C 1.767 11.356 1.423 11.223 1.131 11.007 C 0.934 10.871 0.842 10.628 0.9 10.396 C 0.928 10.258 0.971 10.124 1.029 9.997 C 1.141 9.739 1.414 9.59 1.691 9.636 C 2.031 9.667 2.358 9.786 2.639 9.98 C 2.908 10.132 3.026 10.457 2.918 10.747 C 2.894 10.833 2.862 10.918 2.825 10.998 C 2.698 11.273 2.477 11.397 2.129 11.395 Z M 2.261 10.896 C 2.416 10.894 2.498 10.843 2.534 10.744 C 2.57 10.651 2.535 10.545 2.452 10.489 C 2.394 10.439 2.329 10.396 2.26 10.364 C 2.107 10.298 1.95 10.241 1.793 10.186 C 1.72 10.161 1.645 10.144 1.569 10.134 C 1.451 10.112 1.334 10.175 1.286 10.285 C 1.249 10.38 1.277 10.465 1.383 10.552 C 1.427 10.59 1.476 10.621 1.529 10.644 C 1.725 10.721 1.923 10.794 2.122 10.865 C 2.168 10.878 2.215 10.888 2.263 10.894 Z M 0.647 14.659 L 0.556 15.162 C 0.165 15.082 -0.009 14.871 0 14.482 C 0.004 14.321 0.027 14.162 0.068 14.007 C 0.139 13.708 0.439 13.522 0.738 13.592 C 0.818 13.611 0.893 13.647 0.957 13.698 C 1.103 13.815 1.222 13.961 1.309 14.126 C 1.383 14.244 1.458 14.363 1.543 14.5 C 1.637 14.356 1.595 14.218 1.615 14.091 C 1.637 13.959 1.645 13.825 1.662 13.668 L 2.092 13.691 C 2.042 14.25 1.994 14.784 1.945 15.339 C 1.755 15.3 1.581 15.205 1.445 15.067 C 1.317 14.924 1.205 14.765 1.092 14.611 C 1.023 14.518 0.964 14.418 0.899 14.323 C 0.878 14.292 0.853 14.261 0.827 14.233 C 0.757 14.145 0.641 14.107 0.532 14.136 C 0.439 14.169 0.375 14.256 0.371 14.356 C 0.368 14.469 0.437 14.571 0.544 14.609 C 0.573 14.621 0.601 14.635 0.647 14.659 Z M 9.329 2.201 L 9.506 2.538 L 8.825 2.906 L 9.196 3.625 L 8.666 3.908 L 7.742 2.15 L 9.078 1.449 L 9.276 1.808 L 8.48 2.233 L 8.642 2.555 Z M 28.822 21.788 L 28.062 21.455 L 28.302 20.907 L 29.071 21.234 L 30.432 20.993 L 30.167 21.596 L 29.383 21.703 L 29.837 22.348 L 29.575 22.958 Z M 20.332 2.836 L 19.766 2.643 L 20.241 1.239 C 20.063 1.12 19.851 1.103 19.656 1 L 19.809 0.561 L 21.57 1.16 L 21.418 1.608 L 20.82 1.414 Z M 28.961 18.892 L 30.415 19.272 L 30.584 18.667 L 31.04 18.787 L 30.571 20.581 L 30.109 20.468 L 30.264 19.859 L 28.812 19.472 Z M 0.625 13.097 L 0.195 12.995 L 0.546 11.436 L 0.895 11.513 C 1.216 12.038 1.726 12.422 2.32 12.586 L 2.205 13.099 C 1.668 12.931 1.199 12.596 0.866 12.141 C 0.757 12.467 0.725 12.779 0.625 13.097 Z M 3.509 6.913 C 3.471 7.105 3.439 7.268 3.405 7.43 C 3.394 7.463 3.379 7.495 3.361 7.526 L 3.019 7.275 C 3.114 6.983 3.153 6.694 2.992 6.41 L 3.259 6.046 L 4.882 7.243 L 4.563 7.684 Z M 6.413 5.564 L 5.998 6.008 L 4.633 4.572 L 5.051 4.137 Z M 21.762 3.454 L 21.219 3.192 L 22.065 1.4 L 22.613 1.655 Z M 2.97 20.844 L 3.208 21.398 L 1.387 22.184 L 1.148 21.631 Z M 29.148 17.951 L 29.234 17.368 C 29.889 17.447 30.529 17.545 31.191 17.645 L 31.11 18.23 C 30.449 18.148 29.807 18.054 29.148 17.951 Z M 24.252 15.795 C 24.258 16.312 24.142 16.823 23.917 17.287 C 23.627 17.854 23.14 18.296 22.548 18.528 C 22.117 18.699 21.661 18.794 21.198 18.811 C 20.659 18.854 20.116 18.795 19.599 18.638 C 18.48 18.28 17.81 17.525 17.639 16.35 C 17.554 15.815 17.589 15.268 17.739 14.747 C 17.966 13.953 18.556 13.315 19.33 13.026 C 19.993 12.774 20.708 12.686 21.413 12.771 C 21.818 12.798 22.215 12.895 22.587 13.055 C 23.47 13.419 24.086 14.233 24.195 15.182 C 24.225 15.385 24.234 15.591 24.252 15.795 Z M 22.054 15.795 C 22.036 15.52 22.027 15.244 21.996 14.97 C 21.974 14.662 21.89 14.362 21.751 14.086 C 21.596 13.779 21.277 13.59 20.933 13.602 C 20.584 13.584 20.255 13.772 20.094 14.083 C 19.98 14.3 19.906 14.535 19.875 14.777 C 19.785 15.374 19.774 15.981 19.843 16.581 C 19.864 16.856 19.93 17.127 20.038 17.381 C 20.246 17.868 20.811 18.094 21.297 17.886 C 21.511 17.794 21.685 17.628 21.785 17.419 C 21.845 17.291 21.891 17.157 21.923 17.02 C 22.01 16.617 22.054 16.207 22.054 15.795 Z M 15.855 14.862 C 15.817 14.757 15.788 14.672 15.756 14.588 C 15.546 14.022 15.122 13.734 14.536 13.671 C 14.313 13.637 14.085 13.649 13.867 13.707 C 13.724 13.748 13.595 13.827 13.494 13.937 C 13.285 14.167 13.308 14.427 13.573 14.589 C 13.727 14.68 13.894 14.749 14.067 14.794 C 14.432 14.895 14.805 14.967 15.171 15.065 C 15.596 15.168 16.002 15.337 16.374 15.568 C 16.775 15.816 17.031 16.242 17.064 16.712 C 17.132 17.19 16.998 17.673 16.694 18.047 C 16.463 18.318 16.163 18.521 15.826 18.634 C 15.374 18.786 14.897 18.847 14.422 18.813 C 13.862 18.782 13.315 18.641 12.811 18.396 C 12.789 18.386 12.764 18.38 12.726 18.367 L 12.512 18.669 L 11.754 18.669 L 11.754 16.573 C 11.885 16.553 12.018 16.548 12.15 16.557 C 12.278 16.554 12.406 16.557 12.55 16.557 C 12.577 16.626 12.6 16.69 12.626 16.754 C 12.89 17.382 13.333 17.803 14.016 17.934 C 14.243 17.987 14.479 17.981 14.703 17.919 C 14.826 17.883 14.941 17.825 15.042 17.747 C 15.238 17.607 15.284 17.335 15.145 17.139 C 15.116 17.099 15.082 17.064 15.041 17.036 C 14.877 16.914 14.694 16.818 14.5 16.753 C 14.124 16.622 13.737 16.526 13.358 16.405 C 13.094 16.326 12.834 16.232 12.58 16.125 C 12.097 15.91 11.743 15.561 11.636 15.03 C 11.465 14.183 11.821 13.446 12.598 13.036 C 12.931 12.866 13.297 12.771 13.67 12.756 C 14.378 12.704 15.089 12.832 15.733 13.13 C 15.756 13.141 15.781 13.148 15.823 13.165 L 15.98 12.902 L 16.778 12.902 L 16.778 14.858 C 16.63 14.859 16.479 14.862 16.328 14.862 C 16.173 14.863 16.019 14.862 15.855 14.862 Z M 11.081 17.847 L 11.081 18.635 L 7.711 18.635 L 7.711 17.847 C 7.815 17.847 7.917 17.849 8.017 17.846 C 8.087 17.846 8.158 17.84 8.227 17.829 C 8.334 17.818 8.419 17.734 8.432 17.628 C 8.447 17.546 8.458 17.463 8.461 17.38 C 8.463 16.313 8.463 15.246 8.461 14.179 C 8.461 13.802 8.371 13.716 7.993 13.709 C 7.904 13.708 7.814 13.709 7.711 13.709 L 7.711 12.925 L 11.058 12.925 C 11.102 13.18 11.105 13.44 11.069 13.696 C 11.022 13.701 10.973 13.707 10.923 13.71 C 10.873 13.713 10.82 13.71 10.769 13.711 C 10.425 13.724 10.343 13.797 10.343 14.137 C 10.34 15.229 10.34 16.322 10.343 17.414 C 10.345 17.765 10.427 17.84 10.779 17.847 C 10.875 17.848 10.97 17.847 11.081 17.847 Z" fill="transparent" height="32px" id="IKYUVAqrC" transform="translate(0.32 10)" width="31.353499999999997px"><path d="M 0 32 L 0 0 L 31.353 0 L 31.353 32 Z" fill="transparent" height="32px" id="BQqs6DbbB" width="31.353499999999997px"/><path d="M 11.108 0 C 17.237 0.006 22.201 4.979 22.195 11.108 C 22.189 17.237 17.216 22.201 11.087 22.195 C 4.966 22.189 0.005 17.228 0 11.106 C -0.006 4.978 4.956 0.006 11.084 0 C 11.092 0 11.1 0 11.108 0 Z M 7.377 16.796 C 9.784 15.94 12.412 15.94 14.818 16.794 L 15.164 15.493 C 15.324 15.493 15.47 15.489 15.617 15.494 C 15.769 15.482 15.922 15.491 16.071 15.521 C 15.967 16.061 15.836 16.595 15.677 17.122 C 16.087 17.348 16.494 17.553 16.881 17.791 C 17.268 18.028 17.635 18.296 18.009 18.55 C 22.509 14.426 22.228 7.414 17.992 3.636 C 17.277 4.198 16.498 4.675 15.671 5.054 C 15.828 5.611 15.978 6.144 16.077 6.694 L 15.156 6.694 C 15.1 6.472 15.048 6.26 14.992 6.05 C 14.944 5.83 14.88 5.615 14.8 5.405 C 12.399 6.256 9.778 6.254 7.377 5.401 L 7.03 6.706 C 6.871 6.706 6.723 6.707 6.577 6.706 C 6.427 6.705 6.277 6.702 6.098 6.7 L 6.516 5.049 C 5.692 4.671 4.915 4.196 4.203 3.632 C -0.268 7.71 -0.08 14.722 4.203 18.559 C 4.92 17.996 5.701 17.518 6.528 17.138 C 6.362 16.599 6.224 16.052 6.116 15.499 L 7.035 15.499 Z M 14.5 4.539 C 14.494 4.503 14.487 4.467 14.477 4.432 C 14.195 3.672 13.809 2.956 13.329 2.303 C 13.021 1.874 12.632 1.51 12.184 1.23 C 11.559 0.824 10.76 0.802 10.114 1.173 C 9.698 1.406 9.332 1.718 9.035 2.091 C 8.558 2.68 8.169 3.336 7.88 4.038 C 7.813 4.195 7.751 4.355 7.678 4.532 C 9.883 5.323 12.294 5.326 14.5 4.539 Z M 7.689 17.656 C 7.705 17.709 7.711 17.74 7.722 17.769 C 7.985 18.473 8.337 19.141 8.769 19.757 C 9.051 20.164 9.397 20.523 9.793 20.821 C 10.625 21.428 11.528 21.436 12.368 20.844 C 12.656 20.638 12.916 20.396 13.141 20.124 C 13.715 19.413 14.168 18.612 14.48 17.754 C 14.489 17.721 14.495 17.687 14.498 17.654 C 12.296 16.87 9.891 16.871 7.689 17.656 Z M 13.693 20.921 C 14.997 20.592 16.22 19.998 17.283 19.175 C 16.699 18.721 16.065 18.335 15.395 18.024 C 15.14 18.543 14.906 19.049 14.646 19.542 C 14.378 20.033 14.059 20.495 13.693 20.921 Z M 8.512 20.925 C 8.144 20.505 7.822 20.044 7.555 19.553 C 7.29 19.056 7.056 18.544 6.801 18.023 C 6.13 18.335 5.496 18.721 4.912 19.175 C 5.979 19.999 7.204 20.595 8.512 20.925 Z M 15.361 4.167 C 15.852 4.002 17.083 3.239 17.254 2.996 C 16.196 2.181 14.981 1.594 13.686 1.269 C 14.434 2.126 14.946 3.111 15.361 4.167 Z M 8.494 1.276 C 7.197 1.602 5.981 2.193 4.923 3.011 C 5.303 3.364 6.48 4.07 6.839 4.159 C 7.224 3.112 7.783 2.137 8.494 1.276 Z" fill="rgb(163, 163, 163)" height="22.19510507782791px" id="YzRYwj8Xy" transform="translate(4.547 4.688)" width="22.195120192086645px"/><path d="M 3.721 2.022 C 3.723 2.358 3.651 2.691 3.511 2.997 C 3.246 3.587 2.671 3.976 2.025 4.002 C 1.794 4.023 1.562 4.004 1.338 3.946 C 0.764 3.803 0.307 3.369 0.133 2.803 C -0.042 2.294 -0.044 1.742 0.125 1.232 C 0.335 0.541 0.954 0.053 1.675 0.011 C 2.061 -0.031 2.451 0.047 2.792 0.233 C 3.247 0.49 3.563 0.936 3.654 1.451 C 3.691 1.638 3.699 1.832 3.721 2.022 Z M 1.315 2.001 L 1.347 2.004 C 1.347 2.151 1.337 2.299 1.349 2.446 C 1.351 2.703 1.406 2.956 1.51 3.192 C 1.569 3.324 1.7 3.411 1.845 3.415 C 1.997 3.425 2.14 3.338 2.201 3.198 C 2.253 3.095 2.29 2.986 2.312 2.872 C 2.399 2.36 2.409 1.837 2.341 1.322 C 2.318 1.157 2.275 0.996 2.213 0.842 C 2.165 0.696 2.028 0.599 1.874 0.601 C 1.715 0.596 1.57 0.688 1.507 0.833 C 1.464 0.912 1.434 0.998 1.419 1.086 C 1.378 1.391 1.348 1.696 1.315 2.001 Z" fill="rgb(163, 163, 163)" height="4.010270512450232px" id="yKLglXW22" transform="translate(17.844 27.943)" width="3.7207820845762454px"/><path d="M 3.698 2.015 C 3.72 2.356 3.652 2.697 3.504 3.005 C 3.228 3.605 2.63 3.992 1.97 3.998 C 1.675 4.02 1.378 3.973 1.103 3.861 C 0.638 3.67 0.282 3.281 0.133 2.801 C -0.039 2.299 -0.044 1.755 0.117 1.248 C 0.326 0.526 0.978 0.023 1.729 0.003 C 2.317 -0.026 2.833 0.135 3.233 0.589 C 3.508 0.908 3.67 1.307 3.696 1.727 C 3.705 1.822 3.698 1.919 3.698 2.015 Z M 2.395 2.05 C 2.378 1.778 2.377 1.572 2.348 1.37 C 2.323 1.193 2.281 1.018 2.22 0.85 C 2.175 0.696 2.032 0.592 1.871 0.593 C 1.705 0.586 1.553 0.69 1.499 0.848 C 1.44 0.976 1.402 1.113 1.386 1.253 C 1.363 1.668 1.348 2.085 1.354 2.501 C 1.35 2.739 1.404 2.976 1.511 3.189 C 1.595 3.379 1.818 3.465 2.008 3.381 C 2.088 3.345 2.153 3.284 2.193 3.206 C 2.254 3.1 2.295 2.985 2.312 2.864 C 2.352 2.572 2.372 2.278 2.394 2.05 Z" fill="rgb(163, 163, 163)" height="4.003760117224317px" id="nejpacnrt" transform="translate(13.789 27.949)" width="3.7020900694417977px"/><path d="M 0.758 0.912 C 0.779 0.921 0.802 0.927 0.824 0.933 C 1.048 0.929 1.232 1.108 1.236 1.332 C 1.236 1.346 1.236 1.359 1.234 1.372 C 1.253 1.634 1.075 1.869 0.818 1.921 C 0.729 1.936 0.639 1.94 0.549 1.935 C 0.266 1.928 0.034 1.708 0.011 1.426 C -0.041 1.062 0.093 0.697 0.369 0.453 C 0.66 0.194 1.029 0.042 1.418 0.02 C 1.887 -0.045 2.364 0.05 2.773 0.287 C 3.225 0.546 3.446 1.077 3.311 1.58 C 3.245 1.839 3.075 2.059 2.841 2.189 C 2.574 2.344 2.288 2.463 1.991 2.546 C 1.776 2.612 1.558 2.67 1.348 2.749 C 1.151 2.805 0.981 2.933 0.874 3.107 C 0.916 3.097 0.957 3.085 0.998 3.07 C 1.344 2.907 1.736 2.871 2.106 2.97 C 2.223 3.002 2.343 3.028 2.463 3.048 C 2.724 3.087 2.828 3.001 2.859 2.733 C 2.863 2.695 2.865 2.657 2.871 2.594 C 3.071 2.58 3.271 2.581 3.471 2.597 C 3.494 2.946 3.494 3.282 3.323 3.593 C 3.163 3.885 2.888 3.979 2.582 4.005 C 2.287 4.025 1.99 3.989 1.707 3.9 C 1.523 3.847 1.338 3.787 1.15 3.749 C 0.965 3.71 0.773 3.687 0.657 3.891 L 0.019 3.891 C -0.009 3.6 0.045 3.306 0.177 3.045 C 0.343 2.745 0.582 2.493 0.872 2.311 C 1.089 2.162 1.316 2.028 1.537 1.886 C 1.62 1.835 1.699 1.78 1.775 1.721 C 1.94 1.592 2.033 1.391 2.023 1.182 C 2.027 0.99 1.913 0.814 1.736 0.739 C 1.407 0.586 1.016 0.655 0.758 0.912 Z" fill="rgb(163, 163, 163)" height="4.0104146062287285px" id="JbqW8CFnH" transform="translate(5.797 27.94)" width="3.48186539066608px"/><path d="M 0.67 0.08 C 0.678 0.203 0.684 0.302 0.691 0.424 C 0.716 0.404 0.741 0.382 0.763 0.358 C 1.001 0.033 1.333 -0.044 1.704 0.021 C 1.892 0.062 2.076 0.116 2.257 0.181 C 2.367 0.214 2.477 0.252 2.585 0.291 C 2.675 0.327 2.777 0.306 2.846 0.238 L 2.91 0.088 L 3.396 0.088 C 3.431 0.194 3.426 0.308 3.382 0.41 C 3.268 0.668 3.157 0.927 3.025 1.176 C 2.856 1.492 2.662 1.796 2.489 2.111 C 2.244 2.587 2.114 3.113 2.109 3.648 C 2.106 3.711 2.102 3.774 2.098 3.847 L 0.855 3.847 C 0.825 3.703 0.82 3.555 0.842 3.409 C 0.879 2.858 1.117 2.34 1.513 1.955 C 1.774 1.698 2.045 1.452 2.311 1.201 C 2.37 1.144 2.425 1.083 2.515 0.989 C 2.439 1.007 2.407 1.011 2.376 1.021 C 2.111 1.101 1.829 1.112 1.558 1.056 C 1.413 1.028 1.267 1.008 1.12 0.997 C 0.919 0.973 0.736 1.116 0.711 1.318 C 0.711 1.32 0.71 1.322 0.71 1.323 C 0.692 1.417 0.681 1.512 0.675 1.609 C 0.67 1.671 0.67 1.734 0.666 1.807 L 0 1.807 L 0 0.088 C 0.111 0.085 0.217 0.081 0.324 0.079 C 0.431 0.079 0.541 0.08 0.67 0.08 Z" fill="rgb(163, 163, 163)" height="3.8474703175155156px" id="sUbM955RV" transform="translate(10.023 27.978)" width="3.418854435137014px"/><path d="M 0.001 0.483 C 0.358 0.426 0.714 0.372 0.895 0 L 1.86 0 C 1.863 0.071 1.868 0.139 1.868 0.207 C 1.869 1.08 1.869 1.954 1.868 2.826 C 1.868 2.872 1.867 2.916 1.868 2.962 C 1.875 3.158 1.936 3.223 2.136 3.236 C 2.231 3.241 2.327 3.237 2.432 3.237 C 2.453 3.404 2.458 3.573 2.448 3.741 C 2.295 3.779 0.32 3.792 0.004 3.759 L 0.004 3.26 C 0.181 3.203 0.387 3.289 0.587 3.157 C 0.613 3.089 0.63 3.018 0.637 2.945 C 0.643 2.336 0.641 1.725 0.64 1.116 C 0.636 1.084 0.63 1.053 0.62 1.023 L 0 1.023 Z" fill="rgb(163, 163, 163)" height="3.7779291361659446px" id="jqJe1Es_1" transform="translate(22.562 28.066)" width="2.4529155818981145px"/><path d="M 0.816 0 L 1.1 1.155 L 1.141 1.155 L 1.454 0.018 L 2.229 0.018 L 2.229 1.982 L 1.749 1.982 L 1.749 0.591 C 1.574 1.041 1.469 1.509 1.326 1.976 L 0.884 1.976 L 0.542 0.563 L 0.501 0.564 C 0.499 0.678 0.496 0.793 0.495 0.907 C 0.494 1.021 0.493 1.139 0.492 1.254 C 0.491 1.376 0.493 1.498 0.487 1.621 C 0.482 1.735 0.469 1.848 0.458 1.979 L 0.031 1.956 C -0.011 1.816 -0.01 0.296 0.032 0 Z" fill="rgb(163, 163, 163)" height="1.9821000000000009px" id="N94c1pM2C" transform="translate(14.711 0.032)" width="2.2289294957135724px"/><path d="M 1.405 2.749 L 0.984 2.373 L 1.156 1.095 L 1.122 1.081 L 0.415 1.855 L 0 1.473 L 1.336 0 L 1.75 0.387 L 1.572 1.667 L 1.604 1.684 L 2.319 0.903 L 2.741 1.281 Z" fill="rgb(163, 163, 163)" height="2.7494000000000014px" id="j3A34LA7Z" transform="translate(24.148 3.459)" width="2.7409999999999997px"/><path d="M 1.687 1.172 L 1.075 0.339 L 1.528 0 L 2.707 1.595 L 2.254 1.937 L 0.989 1.498 C 1.205 1.824 1.425 2.093 1.634 2.39 L 1.182 2.727 L 0 1.132 L 0.454 0.796 L 1.654 1.211 Z" fill="rgb(163, 163, 163)" height="2.7273999999999994px" id="MN_E4SR3l" transform="translate(5.586 2.521)" width="2.70739px"/><path d="M 0.897 1.368 C 0.67 1.623 0.468 1.749 0 1.919 L 0 1.267 L 0.629 0.945 C 0.727 0.91 0.803 0.829 0.832 0.728 C 0.835 0.69 0.836 0.651 0.833 0.611 L 0.049 0.611 C 0.028 0.41 0.028 0.207 0.047 0.005 C 0.708 -0.018 1.357 0.046 2.02 0.038 C 2.02 0.232 2.023 0.404 2.019 0.576 C 2.014 0.788 2.002 0.999 1.992 1.211 C 1.991 1.249 1.99 1.288 1.984 1.326 C 1.942 1.614 1.788 1.782 1.542 1.807 C 1.27 1.865 1.001 1.704 0.922 1.438 C 0.915 1.417 0.907 1.394 0.897 1.368 Z M 1.522 1.182 C 1.629 1.027 1.644 0.915 1.594 0.646 L 1.232 0.622 C 1.189 0.737 1.18 0.862 1.207 0.982 C 1.248 1.188 1.296 1.22 1.522 1.182 Z" fill="rgb(163, 163, 163)" height="1.919291959020132px" id="KJEdSAaJa" transform="translate(29.305 15.179)" width="2.020835479310023px"/><path d="M 0 0.2 C 0.35 0.142 0.677 0.086 1.005 0.034 C 1.113 0.015 1.221 0.004 1.33 0.001 C 1.564 -0.017 1.777 0.135 1.837 0.362 C 1.916 0.595 1.831 0.852 1.628 0.992 C 1.594 1.017 1.557 1.039 1.516 1.066 C 1.808 1.232 1.938 1.373 2.226 1.837 C 2.115 1.857 2.011 1.878 1.906 1.896 C 1.799 1.915 1.692 1.931 1.572 1.951 C 1.424 1.76 1.274 1.569 1.126 1.377 C 1.059 1.261 0.915 1.216 0.793 1.272 L 0.914 2.057 L 0.323 2.156 Z M 1.273 0.658 C 1.255 0.501 1.184 0.416 1.058 0.425 C 0.921 0.42 0.785 0.449 0.661 0.508 L 0.732 0.891 C 0.952 0.857 1.166 0.877 1.273 0.658 Z" fill="rgb(163, 163, 163)" height="2.156160095161349px" id="qciHqGqiI" transform="translate(12.242 0.182)" width="2.2257999999999996px"/><path d="M 0 0.968 C 0.003 0.296 0.618 0.013 1.131 0 C 1.771 -0.016 2.081 0.556 2.099 1.127 C 2.118 1.76 1.57 2.072 0.952 2.093 C 0.361 2.113 0.03 1.556 0 0.968 Z M 1.51 1.21 C 1.501 1.004 1.434 0.805 1.316 0.636 C 1.209 0.492 1.018 0.439 0.852 0.508 C 0.687 0.56 0.577 0.717 0.585 0.891 C 0.593 1.103 0.668 1.308 0.798 1.476 C 0.903 1.615 1.089 1.662 1.247 1.589 C 1.415 1.542 1.524 1.383 1.51 1.21 Z" fill="rgb(163, 163, 163)" height="2.093460135210128px" id="jvMcjfD10" transform="translate(9.859 0.759)" width="2.099599205593999px"/><path d="M 2.137 1.023 C 2.115 1.454 1.87 1.843 1.491 2.049 C 1.295 2.153 1.064 2.169 0.855 2.095 C 0.614 2.021 0.398 1.883 0.228 1.697 C 0.029 1.488 -0.047 1.189 0.029 0.909 C 0.091 0.644 0.235 0.406 0.441 0.228 C 0.678 0.007 1.02 -0.06 1.321 0.056 C 1.567 0.137 1.784 0.287 1.948 0.487 C 2.075 0.636 2.142 0.827 2.137 1.023 Z M 1.576 0.947 C 1.576 0.667 1.252 0.394 0.98 0.563 C 0.749 0.7 0.597 0.938 0.572 1.205 C 0.543 1.487 0.88 1.727 1.124 1.598 C 1.365 1.46 1.531 1.221 1.576 0.947 Z" fill="rgb(163, 163, 163)" height="2.1407920314728113px" id="LNcgNq5CR" transform="translate(22.461 2.25)" width="2.1376120282401456px"/><path d="M 0.991 2.063 C 0.483 2.063 0.159 1.82 0.048 1.35 C 0.005 1.183 -0.009 1.009 0.006 0.837 C 0.054 0.399 0.279 0.159 0.706 0.051 C 0.886 0.002 1.074 -0.012 1.259 0.011 C 1.595 0.044 1.878 0.275 1.976 0.598 C 2.05 0.805 2.076 1.026 2.051 1.244 C 2.025 1.553 1.831 1.822 1.546 1.944 C 1.373 2.028 1.183 2.068 0.991 2.063 Z M 1.139 0.596 C 0.965 0.591 0.792 0.631 0.638 0.711 C 0.498 0.798 0.426 0.964 0.458 1.126 C 0.475 1.292 0.602 1.426 0.767 1.451 C 0.971 1.49 1.181 1.465 1.37 1.38 C 1.525 1.319 1.621 1.162 1.604 0.996 C 1.592 0.735 1.432 0.597 1.139 0.596 Z" fill="rgb(163, 163, 163)" height="2.0631103668219213px" id="tx5xSc2vg" transform="translate(0.078 16.623)" width="2.0601384105396185px"/><path d="M 2.145 1.869 C 2.004 1.893 1.88 1.916 1.755 1.934 C 1.489 1.972 1.222 2.013 0.955 2.046 C 0.569 2.095 0.156 1.921 0.061 1.446 C 0.021 1.257 0 1.066 0 0.874 C -0.011 0.586 0.172 0.327 0.447 0.24 C 0.648 0.178 0.855 0.133 1.065 0.107 C 1.324 0.064 1.585 0.035 1.845 0 C 1.92 0.186 1.952 0.387 1.935 0.587 C 1.661 0.627 1.383 0.667 1.105 0.707 C 0.984 0.725 0.862 0.734 0.743 0.76 C 0.557 0.785 0.426 0.956 0.45 1.142 C 0.456 1.183 0.469 1.223 0.489 1.259 C 0.532 1.386 0.658 1.466 0.791 1.451 C 0.957 1.437 1.122 1.415 1.288 1.392 C 1.497 1.363 1.706 1.33 1.916 1.301 C 1.963 1.298 2.01 1.298 2.058 1.301 Z" fill="rgb(163, 163, 163)" height="2.0539330713379993px" id="ZGGIXUqd3" transform="translate(29.148 12.574)" width="2.14547182567609px"/><path d="M 1.458 1.911 L 1.029 1.05 L 0.665 1.23 L 1.133 2.178 L 0.754 2.371 C 0.736 2.349 0.719 2.325 0.705 2.301 C 0.473 1.835 0.243 1.369 0 0.879 L 1.784 0 L 2.508 1.469 L 2.144 1.653 L 1.678 0.73 L 1.383 0.873 L 1.804 1.734 Z" fill="rgb(163, 163, 163)" height="2.371199999999998px" id="j0Ju4kFaA" transform="translate(27.562 8.05)" width="2.5077px"/><path d="M 1.909 1.444 L 1.585 1.032 C 1.691 0.778 1.664 0.609 1.508 0.518 C 1.421 0.467 1.382 0.482 1.279 0.611 L 1.365 0.872 C 1.418 1.03 1.48 1.186 1.52 1.347 C 1.585 1.549 1.523 1.77 1.364 1.911 C 1.197 2.071 0.953 2.121 0.736 2.042 C 0.651 2.013 0.572 1.969 0.502 1.912 C 0.277 1.728 0.111 1.481 0.027 1.202 C -0.054 0.936 0.052 0.648 0.285 0.496 L 0.621 0.919 C 0.532 1.049 0.443 1.181 0.518 1.343 C 0.559 1.462 0.662 1.548 0.786 1.566 C 0.959 1.5 1.003 1.43 0.96 1.265 C 0.934 1.166 0.883 1.074 0.859 0.975 C 0.815 0.815 0.785 0.652 0.768 0.487 C 0.745 0.158 1.097 -0.063 1.391 0.016 C 1.461 0.032 1.526 0.06 1.585 0.098 C 1.874 0.297 2.074 0.601 2.141 0.946 C 2.174 1.118 2.097 1.274 1.909 1.444 Z" fill="rgb(163, 163, 163)" height="2.07869966047494px" id="q27UWLVAY" transform="translate(26.625 6.31)" width="2.148590854584093px"/><path d="M 0.379 0.326 L 0.57 0.842 C 0.425 0.95 0.347 1.079 0.429 1.258 C 0.477 1.363 0.513 1.383 0.656 1.379 C 0.76 1.299 0.731 1.187 0.73 1.079 C 0.721 0.881 0.723 0.683 0.736 0.485 C 0.781 0.013 1.347 -0.131 1.685 0.127 C 1.757 0.18 1.819 0.247 1.867 0.323 C 2.042 0.595 2.118 0.92 2.085 1.242 C 2.054 1.498 1.876 1.637 1.641 1.747 L 1.446 1.232 C 1.758 0.963 1.754 0.692 1.442 0.554 C 1.271 0.604 1.238 0.638 1.232 0.801 C 1.228 0.929 1.241 1.058 1.235 1.186 C 1.234 1.308 1.221 1.429 1.194 1.548 C 1.128 1.818 0.857 1.983 0.586 1.918 C 0.524 1.902 0.465 1.875 0.412 1.838 C 0.342 1.792 0.283 1.732 0.235 1.663 C 0.056 1.401 -0.025 1.083 0.006 0.767 C 0.034 0.56 0.18 0.387 0.379 0.326 Z" fill="rgb(163, 163, 163)" height="1.9322122217914526px" id="X8d1fDLQt" transform="translate(0.555 18.957)" width="2.0925902965124306px"/><path d="M 2.11 2.21 L 1.506 2.094 C 1.487 1.967 1.471 1.862 1.455 1.751 L 0.77 1.621 L 0.589 1.923 L 0 1.806 L 1.101 0 L 1.747 0.123 C 1.878 0.807 1.993 1.492 2.11 2.21 Z M 1.409 1.321 C 1.406 1.079 1.367 0.839 1.294 0.608 L 0.968 1.229 Z" fill="rgb(163, 163, 163)" height="2.2103px" id="iHsHmcZjp" transform="translate(17.164 0.246)" width="2.1099999999999994px"/><path d="M 1.288 1.856 C 1.182 1.832 1.074 1.816 0.972 1.782 C 0.722 1.697 0.489 1.569 0.286 1.402 C 0.019 1.221 -0.076 0.871 0.065 0.58 C 0.109 0.467 0.168 0.36 0.241 0.263 C 0.385 0.056 0.641 -0.042 0.886 0.017 C 1.233 0.088 1.555 0.251 1.817 0.491 C 2.071 0.681 2.143 1.029 1.986 1.304 C 1.932 1.42 1.864 1.529 1.784 1.628 C 1.661 1.775 1.479 1.859 1.288 1.856 Z M 1.363 1.352 C 1.504 1.357 1.582 1.319 1.619 1.229 C 1.662 1.131 1.633 1.016 1.548 0.951 C 1.307 0.739 1.02 0.585 0.71 0.5 C 0.607 0.467 0.495 0.511 0.444 0.607 C 0.397 0.687 0.405 0.788 0.465 0.858 C 0.484 0.885 0.506 0.908 0.531 0.928 C 0.753 1.101 1.002 1.238 1.267 1.334 C 1.298 1.343 1.33 1.349 1.363 1.352 Z" fill="rgb(163, 163, 163)" height="1.8564807526183251px" id="CBOLM8pVf" transform="translate(1.719 7.775)" width="2.068661138833506px"/><path d="M 0.97 1.48 L 0.97 1.975 C 0.646 2.058 0.309 1.9 0.166 1.597 C 0.072 1.414 0.016 1.213 0.003 1.008 C -0.026 0.677 0.143 0.362 0.435 0.204 C 0.659 0.064 0.921 -0.007 1.187 0.001 C 1.409 0.001 1.62 0.095 1.768 0.26 C 1.985 0.503 2.098 0.821 2.083 1.146 C 2.07 1.401 1.93 1.632 1.711 1.762 L 1.446 1.304 C 1.471 1.277 1.493 1.254 1.513 1.23 C 1.656 1.073 1.644 0.831 1.488 0.688 C 1.404 0.611 1.291 0.576 1.179 0.591 C 0.996 0.625 0.82 0.684 0.653 0.765 C 0.504 0.831 0.427 0.997 0.476 1.153 C 0.501 1.311 0.625 1.434 0.783 1.458 C 0.838 1.469 0.895 1.471 0.97 1.48 Z" fill="rgb(163, 163, 163)" height="1.9969824088250654px" id="mmIz_Q2U6" transform="translate(28.625 10.32)" width="2.084365556110903px"/><path d="M 1.246 1.767 C 0.885 1.728 0.541 1.595 0.248 1.379 C 0.051 1.243 -0.041 1 0.017 0.768 C 0.045 0.63 0.088 0.496 0.146 0.369 C 0.258 0.111 0.531 -0.038 0.808 0.008 C 1.148 0.039 1.475 0.158 1.756 0.352 C 2.025 0.504 2.143 0.829 2.035 1.119 C 2.011 1.205 1.98 1.29 1.942 1.37 C 1.815 1.645 1.594 1.769 1.246 1.767 Z M 1.378 1.268 C 1.534 1.266 1.616 1.215 1.651 1.116 C 1.687 1.023 1.653 0.917 1.569 0.861 C 1.511 0.811 1.446 0.768 1.377 0.736 C 1.225 0.67 1.067 0.613 0.91 0.558 C 0.837 0.533 0.762 0.516 0.686 0.506 C 0.568 0.484 0.451 0.547 0.404 0.657 C 0.366 0.752 0.394 0.837 0.501 0.924 C 0.544 0.962 0.593 0.993 0.646 1.016 C 0.842 1.093 1.04 1.166 1.239 1.237 C 1.285 1.25 1.333 1.26 1.38 1.266 Z" fill="rgb(163, 163, 163)" height="1.7666871685040915px" id="sSQbUbRNu" transform="translate(0.883 9.628)" width="2.074953339818256px"/><path d="M 0.647 1.082 L 0.556 1.585 C 0.165 1.505 -0.009 1.294 0 0.904 C 0.004 0.744 0.027 0.585 0.068 0.43 C 0.139 0.131 0.439 -0.056 0.738 0.015 C 0.818 0.034 0.893 0.07 0.957 0.121 C 1.103 0.238 1.222 0.383 1.309 0.549 C 1.383 0.667 1.458 0.785 1.543 0.923 C 1.637 0.778 1.595 0.641 1.615 0.514 C 1.637 0.382 1.645 0.248 1.662 0.091 L 2.092 0.114 C 2.042 0.672 1.994 1.207 1.945 1.762 C 1.755 1.723 1.581 1.628 1.445 1.489 C 1.317 1.347 1.205 1.188 1.092 1.034 C 1.023 0.941 0.964 0.841 0.899 0.746 C 0.878 0.714 0.853 0.684 0.827 0.656 C 0.757 0.568 0.641 0.53 0.532 0.559 C 0.439 0.592 0.375 0.679 0.371 0.778 C 0.368 0.892 0.437 0.994 0.544 1.032 C 0.573 1.043 0.601 1.058 0.647 1.082 Z" fill="rgb(163, 163, 163)" height="1.7622166425308627px" id="anfB_5obo" transform="translate(0 13.577)" width="2.0923371893023726px"/><path d="M 1.586 0.752 L 1.764 1.089 L 1.083 1.457 L 1.454 2.176 L 0.924 2.459 L 0 0.701 L 1.336 0 L 1.533 0.359 L 0.738 0.784 L 0.9 1.106 Z" fill="rgb(163, 163, 163)" height="2.459200000000001px" id="hWC6C3bI0" transform="translate(7.742 1.449)" width="1.7642000000000007px"/><path d="M 0.76 0.881 L 0 0.548 L 0.239 0 L 1.008 0.326 L 2.37 0.085 L 2.104 0.689 L 1.32 0.796 L 1.775 1.441 L 1.512 2.051 Z" fill="rgb(163, 163, 163)" height="2.0505999999999993px" id="RlNBWPBgZ" transform="translate(28.062 20.907)" width="2.3699999999999974px"/><path d="M 0.675 2.275 L 0.11 2.082 L 0.584 0.678 C 0.407 0.56 0.195 0.542 0 0.44 L 0.152 0 L 1.914 0.599 L 1.762 1.047 L 1.164 0.853 Z" fill="rgb(163, 163, 163)" height="2.2750000000000004px" id="Df8mLVGHW" transform="translate(19.656 0.56)" width="1.9140999999999977px"/><path d="M 0.149 0.224 L 1.603 0.604 L 1.772 0 L 2.228 0.12 L 1.759 1.913 L 1.297 1.801 L 1.452 1.191 L 0 0.804 Z" fill="rgb(163, 163, 163)" height="1.913499999999999px" id="HJnW60x1D" transform="translate(28.812 18.668)" width="2.2276999999999987px"/><path d="M 0.429 1.661 L 0 1.559 L 0.351 0 L 0.699 0.076 C 1.021 0.602 1.531 0.986 2.125 1.149 L 2.01 1.662 C 1.473 1.495 1.003 1.159 0.67 0.705 C 0.562 1.03 0.53 1.342 0.429 1.661 Z" fill="rgb(163, 163, 163)" height="1.6621000000000024px" id="d5UaZaaMK" transform="translate(0.195 11.436)" width="2.124925px"/><path d="M 0.517 0.867 C 0.478 1.058 0.447 1.221 0.412 1.383 C 0.401 1.416 0.387 1.449 0.369 1.479 L 0.027 1.228 C 0.122 0.937 0.161 0.648 0 0.364 L 0.267 0 L 1.89 1.197 L 1.571 1.638 Z" fill="rgb(163, 163, 163)" height="1.6375000000000028px" id="n0ibHQ8rD" transform="translate(2.992 6.046)" width="1.8902599999999996px"/><path d="M 1.78 1.427 L 1.365 1.871 L 0 0.435 L 0.418 0 Z" fill="rgb(163, 163, 163)" height="1.8709000000000007px" id="lzOPzjqDi" transform="translate(4.633 4.137)" width="1.7797200000000002px"/><path d="M 0.543 2.053 L 0 1.792 L 0.846 0 L 1.394 0.255 Z" fill="rgb(163, 163, 163)" height="2.0532000000000004px" id="GjLjEBn3o" transform="translate(21.219 1.4)" width="1.3943999999999974px"/><path d="M 1.822 0 L 2.06 0.554 L 0.239 1.341 L 0 0.787 Z" fill="rgb(163, 163, 163)" height="1.3406999999999982px" id="LxrL6dQsH" transform="translate(1.148 20.844)" width="2.05964px"/><path d="M 0 0.582 L 0.086 0 C 0.74 0.079 1.38 0.177 2.043 0.277 L 1.962 0.862 C 1.301 0.78 0.658 0.686 0 0.582 Z" fill="rgb(163, 163, 163)" height="1px" id="ls4686orY" transform="translate(29.148 17.368)" width="2.0427999999999997px"/><path d="M 6.658 3.055 C 6.664 3.572 6.549 4.083 6.323 4.547 C 6.034 5.114 5.547 5.556 4.954 5.789 C 4.523 5.959 4.067 6.054 3.604 6.071 C 3.065 6.114 2.523 6.055 2.005 5.899 C 0.886 5.54 0.216 4.785 0.045 3.61 C -0.039 3.075 -0.005 2.528 0.146 2.008 C 0.372 1.214 0.963 0.576 1.736 0.287 C 2.4 0.035 3.115 -0.053 3.819 0.031 C 4.224 0.058 4.621 0.155 4.993 0.315 C 5.876 0.679 6.492 1.494 6.602 2.442 C 6.632 2.645 6.64 2.851 6.658 3.055 Z M 4.46 3.055 C 4.442 2.781 4.433 2.504 4.403 2.231 C 4.38 1.922 4.296 1.622 4.157 1.346 C 4.002 1.039 3.683 0.85 3.34 0.862 C 2.99 0.845 2.662 1.033 2.5 1.344 C 2.386 1.56 2.313 1.795 2.281 2.037 C 2.191 2.635 2.18 3.241 2.249 3.841 C 2.27 4.116 2.336 4.387 2.444 4.641 C 2.653 5.128 3.217 5.354 3.704 5.146 C 3.918 5.054 4.091 4.888 4.192 4.679 C 4.251 4.551 4.298 4.418 4.329 4.28 C 4.417 3.877 4.46 3.467 4.46 3.055 Z" fill="rgb(163, 163, 163)" height="6.084740841752839px" id="ysygdZMX0" transform="translate(17.594 12.74)" width="6.658246122478247px"/><path d="M 4.261 2.118 C 4.223 2.012 4.194 1.927 4.163 1.843 C 3.952 1.277 3.528 0.989 2.942 0.926 C 2.719 0.892 2.491 0.904 2.273 0.962 C 2.13 1.004 2.002 1.083 1.9 1.192 C 1.691 1.423 1.714 1.682 1.979 1.844 C 2.134 1.935 2.3 2.004 2.474 2.05 C 2.838 2.15 3.211 2.222 3.577 2.321 C 4.002 2.423 4.408 2.593 4.781 2.823 C 5.181 3.072 5.438 3.498 5.47 3.968 C 5.538 4.445 5.404 4.928 5.1 5.303 C 4.869 5.574 4.569 5.777 4.232 5.89 C 3.781 6.042 3.303 6.102 2.828 6.068 C 2.269 6.038 1.721 5.896 1.217 5.652 C 1.195 5.641 1.17 5.635 1.133 5.622 L 0.918 5.924 L 0.161 5.924 L 0.161 3.829 C 0.291 3.809 0.424 3.804 0.556 3.813 C 0.684 3.809 0.812 3.812 0.956 3.812 C 0.983 3.881 1.006 3.946 1.033 4.009 C 1.296 4.637 1.739 5.058 2.422 5.19 C 2.649 5.242 2.885 5.237 3.11 5.175 C 3.233 5.138 3.347 5.08 3.448 5.002 C 3.644 4.862 3.69 4.59 3.551 4.394 C 3.523 4.354 3.488 4.319 3.448 4.291 C 3.283 4.169 3.1 4.074 2.906 4.008 C 2.53 3.877 2.143 3.782 1.764 3.661 C 1.5 3.581 1.24 3.487 0.986 3.38 C 0.503 3.165 0.15 2.816 0.042 2.286 C -0.129 1.438 0.227 0.701 1.004 0.291 C 1.337 0.121 1.704 0.026 2.077 0.011 C 2.785 -0.041 3.495 0.088 4.14 0.385 C 4.163 0.396 4.187 0.404 4.229 0.42 L 4.386 0.157 L 5.184 0.157 L 5.184 2.113 C 5.036 2.114 4.885 2.117 4.734 2.118 C 4.579 2.118 4.425 2.118 4.261 2.118 Z" fill="rgb(163, 163, 163)" height="6.077434029179871px" id="YZU5j3Kya" transform="translate(11.594 12.745)" width="5.487220469743928px"/><path d="M 3.37 4.922 L 3.37 5.71 L 0 5.71 L 0 4.922 C 0.104 4.922 0.206 4.924 0.306 4.921 C 0.376 4.921 0.447 4.915 0.517 4.903 C 0.623 4.893 0.709 4.809 0.721 4.702 C 0.736 4.62 0.747 4.538 0.751 4.455 C 0.752 3.388 0.752 2.321 0.751 1.254 C 0.75 0.877 0.66 0.791 0.283 0.784 C 0.193 0.783 0.103 0.784 0 0.784 L 0 0 L 3.347 0 C 3.391 0.255 3.395 0.515 3.358 0.771 C 3.311 0.776 3.262 0.782 3.212 0.785 C 3.163 0.788 3.109 0.785 3.058 0.786 C 2.714 0.798 2.632 0.872 2.632 1.212 C 2.629 2.304 2.629 3.396 2.632 4.489 C 2.634 4.839 2.716 4.915 3.068 4.922 C 3.164 4.923 3.259 4.922 3.37 4.922 Z" fill="rgb(163, 163, 163)" height="5.709599999999998px" id="YAMxLU5i9" transform="translate(7.711 12.925)" width="3.38280410764383px"/></g><path d="M 0 0.68 L 4.24 0.68 L 4.24 28.68 L 0 28.68 Z M 19.234 29.32 C 16.914 29.32 14.887 28.92 13.154 28.12 C 11.42 27.32 10.06 26.173 9.074 24.68 C 8.114 23.187 7.607 21.44 7.554 19.44 L 11.914 19.44 C 12.02 21.413 12.754 22.96 14.114 24.08 C 15.5 25.2 17.247 25.76 19.354 25.76 C 21.38 25.76 22.98 25.36 24.154 24.56 C 25.327 23.733 25.914 22.6 25.914 21.16 C 25.914 19.987 25.474 19.053 24.594 18.36 C 23.714 17.667 22.42 17.147 20.714 16.8 L 16.314 15.84 C 13.994 15.333 12.114 14.427 10.674 13.12 C 9.234 11.813 8.514 10.12 8.514 8.04 C 8.514 6.493 8.967 5.12 9.874 3.92 C 10.78 2.693 12.02 1.733 13.594 1.04 C 15.194 0.347 16.994 0 18.994 0 C 22.167 0 24.7 0.8 26.594 2.4 C 28.514 3.973 29.554 6.093 29.714 8.76 L 25.354 8.76 C 25.247 7.213 24.62 5.973 23.474 5.04 C 22.327 4.08 20.78 3.6 18.834 3.6 C 17.127 3.6 15.7 3.987 14.554 4.76 C 13.434 5.507 12.874 6.48 12.874 7.68 C 12.874 8.8 13.274 9.693 14.074 10.36 C 14.874 11 16.087 11.507 17.714 11.88 L 22.554 12.92 C 24.927 13.427 26.807 14.333 28.194 15.64 C 29.58 16.92 30.274 18.613 30.274 20.72 C 30.274 22.347 29.834 23.813 28.954 25.12 C 28.074 26.427 26.794 27.453 25.114 28.2 C 23.46 28.947 21.5 29.32 19.234 29.32 Z M 45.636 29.32 C 43.076 29.32 40.769 28.733 38.716 27.56 C 36.689 26.36 35.089 24.653 33.916 22.44 C 32.769 20.227 32.196 17.64 32.196 14.68 C 32.196 11.773 32.769 9.213 33.916 7 C 35.089 4.76 36.689 3.04 38.716 1.84 C 40.769 0.613 43.076 0 45.636 0 C 48.196 0 50.489 0.613 52.516 1.84 C 54.569 3.067 56.182 4.8 57.356 7.04 C 58.529 9.253 59.116 11.8 59.116 14.68 C 59.116 17.613 58.529 20.187 57.356 22.4 C 56.182 24.613 54.569 26.32 52.516 27.52 C 50.489 28.72 48.196 29.32 45.636 29.32 Z M 45.636 25.76 C 47.423 25.76 48.996 25.32 50.356 24.44 C 51.742 23.56 52.809 22.293 53.556 20.64 C 54.302 18.96 54.676 16.973 54.676 14.68 C 54.676 12.44 54.289 10.48 53.516 8.8 C 52.769 7.12 51.716 5.84 50.356 4.96 C 48.996 4.053 47.423 3.6 45.636 3.6 C 43.849 3.6 42.276 4.053 40.916 4.96 C 39.556 5.84 38.489 7.12 37.716 8.8 C 36.969 10.453 36.596 12.413 36.596 14.68 C 36.596 16.947 36.969 18.92 37.716 20.6 C 38.463 22.253 39.516 23.533 40.876 24.44 C 42.263 25.32 43.849 25.76 45.636 25.76 Z M 64.206 28.68 L 60.446 28.68 L 71.246 0.68 L 75.006 0.68 Z M 77.984 0.68 L 82.224 0.68 L 82.224 28.68 L 77.984 28.68 Z M 106.778 28.68 L 87.578 28.68 L 87.578 0.68 L 106.258 0.68 L 106.258 4.24 L 91.818 4.24 L 91.818 12.52 L 105.658 12.52 L 105.658 16.12 L 91.818 16.12 L 91.818 25.08 L 106.778 25.08 Z M 122.099 29.32 C 119.405 29.32 117.032 28.733 114.979 27.56 C 112.952 26.36 111.379 24.653 110.259 22.44 C 109.139 20.2 108.579 17.56 108.579 14.52 C 108.579 11.64 109.165 9.107 110.339 6.92 C 111.539 4.707 113.165 3 115.219 1.8 C 117.299 0.6 119.632 0 122.219 0 C 124.459 0 126.459 0.427 128.219 1.28 C 129.979 2.107 131.392 3.28 132.459 4.8 C 133.552 6.32 134.192 8.053 134.379 10 L 129.819 10 C 129.499 8 128.672 6.44 127.339 5.32 C 126.032 4.173 124.299 3.6 122.139 3.6 C 120.352 3.6 118.765 4.04 117.379 4.92 C 115.992 5.8 114.912 7.067 114.139 8.72 C 113.392 10.347 113.019 12.28 113.019 14.52 C 113.019 16.787 113.405 18.773 114.179 20.48 C 114.952 22.16 116.019 23.467 117.379 24.4 C 118.765 25.307 120.339 25.76 122.099 25.76 C 124.285 25.76 126.072 25.173 127.459 24 C 128.872 22.8 129.752 21.213 130.099 19.24 L 134.419 19.24 C 134.045 22.333 132.765 24.787 130.579 26.6 C 128.392 28.413 125.565 29.32 122.099 29.32 Z M 143.506 28.68 C 143.533 27.187 143.8 25.867 144.306 24.72 C 144.813 23.573 145.533 22.52 146.466 21.56 C 147.426 20.573 148.72 19.48 150.346 18.28 L 153.346 16.04 C 154.973 14.813 156.253 13.613 157.186 12.44 C 158.12 11.267 158.586 9.947 158.586 8.48 C 158.586 6.96 158.133 5.733 157.226 4.8 C 156.346 3.867 155.133 3.4 153.586 3.4 C 151.88 3.4 150.533 3.987 149.546 5.16 C 148.586 6.307 148.106 7.933 148.106 10.04 L 148.106 10.48 L 143.826 10.48 L 143.826 9.8 C 143.826 7.8 144.24 6.067 145.066 4.6 C 145.893 3.107 147.04 1.973 148.506 1.2 C 150 0.4 151.693 0 153.586 0 C 155.4 0 157 0.36 158.386 1.08 C 159.773 1.773 160.84 2.76 161.586 4.04 C 162.36 5.32 162.746 6.8 162.746 8.48 C 162.746 10.613 162.12 12.507 160.866 14.16 C 159.613 15.787 157.653 17.587 154.986 19.56 L 153.066 21 C 151.626 22.067 150.6 22.88 149.986 23.44 C 149.373 24 148.986 24.493 148.826 24.92 L 163.066 24.92 L 163.066 28.68 Z M 168.892 28.68 C 169.239 23.853 170.239 19.507 171.892 15.64 C 173.546 11.773 175.652 8.533 178.212 5.92 C 178.692 5.413 179.199 4.933 179.732 4.48 L 164.292 4.48 L 164.292 0.68 L 183.532 0.68 L 183.532 4.72 C 180.652 7.68 178.306 11.2 176.492 15.28 C 174.706 19.36 173.706 23.827 173.492 28.68 Z M 194.977 29.32 C 191.644 29.32 189.057 28.04 187.217 25.48 C 185.404 22.92 184.497 19.32 184.497 14.68 C 184.497 11.64 184.924 9.027 185.777 6.84 C 186.631 4.627 187.844 2.933 189.417 1.76 C 190.991 0.587 192.844 0 194.977 0 C 197.111 0 198.964 0.587 200.537 1.76 C 202.111 2.907 203.324 4.587 204.177 6.8 C 205.031 9.013 205.457 11.667 205.457 14.76 C 205.457 19.347 204.537 22.92 202.697 25.48 C 200.857 28.04 198.284 29.32 194.977 29.32 Z M 195.017 25.96 C 197.017 25.96 198.551 25.04 199.617 23.2 C 200.711 21.333 201.257 18.533 201.257 14.8 C 201.257 10.987 200.711 8.133 199.617 6.24 C 198.551 4.347 197.017 3.4 195.017 3.4 C 192.964 3.4 191.391 4.347 190.297 6.24 C 189.231 8.107 188.697 10.973 188.697 14.84 C 188.697 18.52 189.244 21.293 190.337 23.16 C 191.457 25.027 193.017 25.96 195.017 25.96 Z M 218.321 29.32 C 214.988 29.32 212.401 28.04 210.561 25.48 C 208.748 22.92 207.841 19.32 207.841 14.68 C 207.841 11.64 208.268 9.027 209.121 6.84 C 209.974 4.627 211.188 2.933 212.761 1.76 C 214.334 0.587 216.188 0 218.321 0 C 220.454 0 222.308 0.587 223.881 1.76 C 225.454 2.907 226.668 4.587 227.521 6.8 C 228.374 9.013 228.801 11.667 228.801 14.76 C 228.801 19.347 227.881 22.92 226.041 25.48 C 224.201 28.04 221.628 29.32 218.321 29.32 Z M 218.361 25.96 C 220.361 25.96 221.894 25.04 222.961 23.2 C 224.054 21.333 224.601 18.533 224.601 14.8 C 224.601 10.987 224.054 8.133 222.961 6.24 C 221.894 4.347 220.361 3.4 218.361 3.4 C 216.308 3.4 214.734 4.347 213.641 6.24 C 212.574 8.107 212.041 10.973 212.041 14.84 C 212.041 18.52 212.588 21.293 213.681 23.16 C 214.801 25.027 216.361 25.96 218.361 25.96 Z M 240.865 0.68 L 240.865 28.68 L 236.785 28.68 L 236.785 9.08 C 236.785 7.987 236.812 7.173 236.865 6.64 C 236.172 7.76 235.238 8.68 234.065 9.4 C 232.918 10.093 231.638 10.467 230.225 10.52 L 230.225 6.56 C 231.932 6.347 233.452 5.693 234.785 4.6 C 236.118 3.507 236.998 2.2 237.425 0.68 Z" fill="rgb(163, 163, 163)" height="29.32px" id="uZMpzRSU_" transform="translate(51.072 11.32)" width="240.86509765625px"/></svg>