<svg display="block" role="presentation" viewBox="0 0 158 52" xmlns="http://www.w3.org/2000/svg"><path d="M 14.816 0.046 C 21.888 -0.444 26.577 3.017 29.258 7.233 C 30.603 9.348 31.922 12.559 31.928 15.858 C 31.934 19.442 30.773 22.547 29.258 24.824 C 27.701 27.165 25.688 29.099 23.167 30.369 C 18.952 32.491 13.061 32.549 9.203 30.505 C 4.907 28.23 1.603 24.982 0.374 19.349 C -0.118 17.094 -0.175 14.182 0.51 11.683 C 0.671 11.096 0.964 10.479 1.195 9.903 C 2.307 7.133 4.199 4.724 6.534 3.058 C 7.472 2.389 8.61 1.723 9.614 1.278 C 10.863 0.726 12.967 0.175 14.816 0.046 Z" fill="rgb(255, 255, 255)" height="32.000012090856444px" id="NEBgWNMla" transform="translate(0.039 10)" width="31.927764711972557px"/><path d="M 24.204 12.102 C 24.204 18.786 18.786 24.204 12.102 24.204 C 5.418 24.204 0 18.786 0 12.102 C 0 5.418 5.418 0 12.102 0 C 18.786 0 24.204 5.418 24.204 12.102 Z" fill="rgb(163, 163, 163)" height="24.203699999999998px" id="F98gUEMAy" transform="translate(4.063 14.154)" width="24.2039px"/><path d="M 14.816 0.046 C 21.888 -0.444 26.577 3.017 29.258 7.233 C 30.603 9.348 31.922 12.559 31.928 15.858 C 31.934 19.442 30.773 22.547 29.258 24.824 C 27.701 27.165 25.688 29.099 23.167 30.369 C 18.952 32.491 13.061 32.549 9.203 30.505 C 4.907 28.23 1.603 24.982 0.374 19.349 C -0.118 17.094 -0.175 14.182 0.51 11.683 C 0.671 11.096 0.964 10.479 1.195 9.903 C 2.307 7.133 4.199 4.724 6.534 3.058 C 7.472 2.389 8.61 1.723 9.614 1.278 C 10.863 0.726 12.967 0.175 14.816 0.046 Z M 12.42 1.21 C 9.793 1.891 7.867 3.111 6.192 4.427 C 3.775 6.325 2.234 8.973 1.332 12.162 C 0.328 15.71 0.973 20.003 2.359 22.702 C 3.796 25.502 5.725 27.675 8.45 29.205 C 11.101 30.694 14.83 31.65 18.717 30.916 C 22.171 30.264 24.794 28.76 26.931 26.535 C 29.79 23.559 32.088 18.078 30.559 12.299 C 30.15 10.754 29.616 9.144 28.779 7.781 C 28.327 7.045 27.664 6.32 27 5.591 C 24.492 2.837 20.439 0.464 15.227 0.799 C 14.235 0.863 13.363 0.966 12.42 1.21 Z" fill="rgb(163, 163, 163)" height="32.000012090856444px" id="sQ6cdHqHa" transform="translate(0.039 10)" width="31.927764711972557px"/><path d="M 0 13.984 L 13.985 0" fill="transparent" height="13.984099999999998px" id="tINRKeHxo" stroke-dasharray="" stroke-linecap="butt" stroke-linejoin="miter" stroke-miterlimit="10" stroke-width="0.106695" stroke="rgb(255, 255, 255)" transform="translate(16.898 26.787)" width="13.9845px"/><path d="M 0 14.045 L 14.045 0" fill="transparent" height="14.045099999999998px" id="hH08wuCfT" stroke-dasharray="" stroke-linecap="butt" stroke-linejoin="miter" stroke-miterlimit="10" stroke-width="0.106695" stroke="rgb(255, 255, 255)" transform="translate(15.68 25.618)" width="14.0454px"/><path d="M 0 14.106 L 14.107 0" fill="transparent" height="14.106300000000001px" id="yr15OqIx2" stroke-dasharray="" stroke-linecap="butt" stroke-linejoin="miter" stroke-miterlimit="10" stroke-width="0.106695" stroke="rgb(255, 255, 255)" transform="translate(14.453 24.449)" width="14.1065px"/><path d="M 0 14.167 L 14.168 0" fill="transparent" height="14.167200000000001px" id="kwlFkuIrO" stroke-dasharray="" stroke-linecap="butt" stroke-linejoin="miter" stroke-miterlimit="10" stroke-width="0.106695" stroke="rgb(255, 255, 255)" transform="translate(13.234 23.281)" width="14.1675px"/><path d="M 0 14.228 L 14.229 0" fill="transparent" height="14.2283px" id="smifPbsqU" stroke-dasharray="" stroke-linecap="butt" stroke-linejoin="miter" stroke-miterlimit="10" stroke-width="0.106695" stroke="rgb(255, 255, 255)" transform="translate(12.008 22.112)" width="14.2286px"/><path d="M 0 14.29 L 14.29 0" fill="transparent" height="14.2897px" id="K0hO4IpFm" stroke-dasharray="" stroke-linecap="butt" stroke-linejoin="miter" stroke-miterlimit="10" stroke-width="0.106695" stroke="rgb(255, 255, 255)" transform="translate(10.789 20.944)" width="14.289500000000002px"/><path d="M 0 14.35 L 14.351 0" fill="transparent" height="14.350399999999997px" id="XUQtvtbwD" stroke-dasharray="" stroke-linecap="butt" stroke-linejoin="miter" stroke-miterlimit="10" stroke-width="0.106695" stroke="rgb(255, 255, 255)" transform="translate(9.563 19.775)" width="14.3506px"/><path d="M 0 14.412 L 14.412 0" fill="transparent" height="14.4115px" id="GFXBY8Bf4" stroke-dasharray="" stroke-linecap="butt" stroke-linejoin="miter" stroke-miterlimit="10" stroke-width="0.106695" stroke="rgb(255, 255, 255)" transform="translate(8.344 18.607)" width="14.411549999999998px"/><path d="M 0 14.473 L 14.472 0" fill="transparent" height="14.4725px" id="Pssu6Z_Xt" stroke-dasharray="" stroke-linecap="butt" stroke-linejoin="miter" stroke-miterlimit="10" stroke-width="0.106695" stroke="rgb(255, 255, 255)" transform="translate(7.117 17.439)" width="14.47231px"/><path d="M 0 14.534 L 14.534 0" fill="transparent" height="14.5335px" id="wE0O8YzqO" stroke-dasharray="" stroke-linecap="butt" stroke-linejoin="miter" stroke-miterlimit="10" stroke-width="0.106695" stroke="rgb(255, 255, 255)" transform="translate(5.898 16.27)" width="14.533659999999998px"/><path d="M 0 14.595 L 14.595 0" fill="transparent" height="14.594500000000002px" id="fKzoZKlO2" stroke-dasharray="" stroke-linecap="butt" stroke-linejoin="miter" stroke-miterlimit="10" stroke-width="0.106695" stroke="rgb(255, 255, 255)" transform="translate(4.672 15.102)" width="14.59462px"/><path d="M 0 14.656 L 14.656 0" fill="transparent" height="14.6557px" id="ndJ0GDkXo" stroke-dasharray="" stroke-linecap="butt" stroke-linejoin="miter" stroke-miterlimit="10" stroke-width="0.106695" stroke="rgb(255, 255, 255)" transform="translate(3.453 13.933)" width="14.655779999999998px"/><path d="M 0 14.717 L 14.717 0" fill="transparent" height="14.716700000000001px" id="UGWKiXq8x" stroke-dasharray="" stroke-linecap="butt" stroke-linejoin="miter" stroke-miterlimit="10" stroke-width="0.106695" stroke="rgb(255, 255, 255)" transform="translate(2.227 12.765)" width="14.716840000000001px"/><path d="M 0 14.778 L 14.778 0" fill="transparent" height="14.7776px" id="sVFKabDoP" stroke-dasharray="" stroke-linecap="butt" stroke-linejoin="miter" stroke-miterlimit="10" stroke-width="0.106695" stroke="rgb(255, 255, 255)" transform="translate(1.008 11.596)" width="14.77779px"/><path d="M 0 0 L 14.264 14.265" fill="transparent" height="14.264500000000002px" id="AQOiwI5ry" stroke-dasharray="" stroke-linecap="butt" stroke-linejoin="miter" stroke-miterlimit="10" stroke-width="0.106695" stroke="rgb(255, 255, 255)" transform="translate(1 26.515)" width="14.2639px"/><path d="M 0 0 L 14.292 14.292" fill="transparent" height="14.292299999999997px" id="rJtK5R3xp" stroke-dasharray="" stroke-linecap="butt" stroke-linejoin="miter" stroke-miterlimit="10" stroke-width="0.106695" stroke="rgb(255, 255, 255)" transform="translate(2.156 25.342)" width="14.29165px"/><path d="M 0 0 L 14.319 14.32" fill="transparent" height="14.319899999999997px" id="r06c54lXE" stroke-dasharray="" stroke-linecap="butt" stroke-linejoin="miter" stroke-miterlimit="10" stroke-width="0.106695" stroke="rgb(255, 255, 255)" transform="translate(3.313 24.169)" width="14.319299999999998px"/><path d="M 0 0 L 14.347 14.348" fill="transparent" height="14.3478px" id="xgkt1zlb_" stroke-dasharray="" stroke-linecap="butt" stroke-linejoin="miter" stroke-miterlimit="10" stroke-width="0.106695" stroke="rgb(255, 255, 255)" transform="translate(4.469 22.995)" width="14.34715px"/><path d="M 0 0 L 14.375 14.375" fill="transparent" height="14.375400000000003px" id="kzLah80a0" stroke-dasharray="" stroke-linecap="butt" stroke-linejoin="miter" stroke-miterlimit="10" stroke-width="0.106695" stroke="rgb(255, 255, 255)" transform="translate(5.625 21.822)" width="14.3749px"/><path d="M 0 0 L 14.403 14.403" fill="transparent" height="14.403200000000002px" id="U3Pi7e7rU" stroke-dasharray="" stroke-linecap="butt" stroke-linejoin="miter" stroke-miterlimit="10" stroke-width="0.106695" stroke="rgb(255, 255, 255)" transform="translate(6.789 20.649)" width="14.402740000000001px"/><path d="M 0 0 L 14.43 14.431" fill="transparent" height="14.430900000000001px" id="b0iEsxTvz" stroke-dasharray="" stroke-linecap="butt" stroke-linejoin="miter" stroke-miterlimit="10" stroke-width="0.106695" stroke="rgb(255, 255, 255)" transform="translate(7.945 19.476)" width="14.430490000000002px"/><path d="M 0 0 L 14.458 14.459" fill="transparent" height="14.4587px" id="I0x8QAs2E" stroke-dasharray="" stroke-linecap="butt" stroke-linejoin="miter" stroke-miterlimit="10" stroke-width="0.106695" stroke="rgb(255, 255, 255)" transform="translate(9.102 18.302)" width="14.45824px"/><path d="M 0 0 L 14.486 14.486" fill="transparent" height="14.4864px" id="iduVpuJmD" stroke-dasharray="" stroke-linecap="butt" stroke-linejoin="miter" stroke-miterlimit="10" stroke-width="0.106695" stroke="rgb(255, 255, 255)" transform="translate(10.258 17.129)" width="14.4861px"/><path d="M 0 0 L 14.514 14.514" fill="transparent" height="14.514px" id="qoMk7xiel" stroke-dasharray="" stroke-linecap="butt" stroke-linejoin="miter" stroke-miterlimit="10" stroke-width="0.106695" stroke="rgb(255, 255, 255)" transform="translate(11.414 15.956)" width="14.513700000000002px"/><path d="M 0 0 L 14.542 14.542" fill="transparent" height="14.541900000000002px" id="MdEXkz5ep" stroke-dasharray="" stroke-linecap="butt" stroke-linejoin="miter" stroke-miterlimit="10" stroke-width="0.106695" stroke="rgb(255, 255, 255)" transform="translate(12.57 14.782)" width="14.541599999999999px"/><path d="M 0 0 L 14.569 14.569" fill="transparent" height="14.5695px" id="prmw7g8gD" stroke-dasharray="" stroke-linecap="butt" stroke-linejoin="miter" stroke-miterlimit="10" stroke-width="0.106695" stroke="rgb(255, 255, 255)" transform="translate(13.727 13.609)" width="14.5693px"/><path d="M 0 0 L 14.597 14.597" fill="transparent" height="14.5973px" id="I1iiWOXqp" stroke-dasharray="" stroke-linecap="butt" stroke-linejoin="miter" stroke-miterlimit="10" stroke-width="0.106695" stroke="rgb(255, 255, 255)" transform="translate(14.883 12.436)" width="14.597100000000001px"/><path d="M 0 0 L 14.625 14.625" fill="transparent" height="14.624999999999998px" id="E0XVgG5Me" stroke-dasharray="" stroke-linecap="butt" stroke-linejoin="miter" stroke-miterlimit="10" stroke-width="0.106695" stroke="rgb(255, 255, 255)" transform="translate(16.039 11.263)" width="14.6248px"/><path d="M 24.604 4.221 C 23.345 2.962 21.798 1.828 19.949 1.141 C 18.034 0.428 15.866 -0.172 13.31 0.045 C 9.238 0.392 6.379 2.219 4.207 4.358 C 2.685 5.855 1.54 7.69 0.784 9.833 C -0.325 12.98 -0.258 16.694 0.99 19.895 C 2.054 22.626 3.795 24.828 6.26 26.534 C 8.577 28.138 11.902 29.382 15.637 29.067 C 20.186 28.683 23.515 26.349 25.699 23.66 C 26.258 22.972 26.813 22.194 27.136 21.264 C 27.453 20.594 27.607 20.138 27.752 19.895 C 28.359 18.536 28.68 17.101 28.779 15.514 C 29.082 10.634 27.204 6.821 24.604 4.221 Z M 23.263 19.091 C 23.254 19.11 23.247 19.127 23.238 19.146 C 23.012 19.792 22.623 20.332 22.233 20.81 C 20.705 22.677 18.377 24.298 15.196 24.565 C 12.584 24.783 10.259 23.92 8.639 22.806 C 7.231 21.838 6.16 20.64 5.41 19.2 C 5.364 19.113 4.928 18.109 4.927 18.065 C 4.332 16.221 4.281 13.256 4.891 11.476 C 5.298 10.288 5.977 9.003 6.876 7.985 C 8.117 6.58 9.359 5.679 11.325 5.042 C 12.223 4.751 13.026 4.455 14.131 4.426 C 16.827 4.354 19.571 5.564 21.045 6.89 C 22.399 8.108 23.942 10.482 24.33 12.708 C 24.729 15 24.303 17.237 23.263 19.091 Z" fill="rgb(163, 163, 163)" height="29.116092968235904px" id="wBpnpnKTs" transform="translate(1.617 11.438)" width="28.81113361874426px"/><path d="M 9.579 12.943 C 8.915 12.943 8.333 12.523 8.13 11.897 L 7.391 9.645 L 3.693 9.645 L 3.006 11.877 C 2.799 12.514 2.212 12.941 1.545 12.941 C 1.385 12.941 1.226 12.916 1.072 12.866 C 0.275 12.627 -0.178 11.768 0.066 10.954 L 3.187 1.067 C 3.39 0.439 3.987 0 4.638 0 L 6.298 0 C 6.954 0 7.55 0.431 7.749 1.049 L 11.031 10.931 C 11.294 11.739 10.859 12.607 10.063 12.866 C 9.906 12.917 9.743 12.943 9.579 12.943 Z" fill="rgb(255, 255, 255)" height="12.943000000000001px" id="GNOQQM1vj" stroke-dasharray="" stroke-linecap="butt" stroke-linejoin="miter" stroke-miterlimit="10" stroke-width="0.320086" stroke="rgb(163, 163, 163)" transform="translate(10.617 19.785)" width="11.10776148027502px"/><path d="M 0.232 1.956 L 0.228 1.951 C -0.161 1.417 -0.047 0.671 0.527 0.253 C 1.1 -0.166 1.836 -0.048 2.225 0.485 L 2.229 0.49 C 2.618 1.024 2.504 1.77 1.931 2.188 C 1.358 2.607 0.621 2.489 0.232 1.956 Z M 1.708 0.879 L 1.704 0.874 C 1.508 0.606 1.144 0.514 0.86 0.721 C 0.579 0.926 0.557 1.292 0.753 1.56 L 0.756 1.565 C 0.952 1.833 1.316 1.925 1.597 1.72 C 1.881 1.513 1.903 1.147 1.708 0.879 Z" fill="rgb(255, 255, 255)" height="2.44101290707444px" id="qeT1W5Rpi" transform="translate(7.703 14.678)" width="2.457575241735932px"/><path d="M 0.225 0.188 L 0.81 0 L 2.449 1.906 L 1.799 2.115 L 1.514 1.775 L 0.669 2.046 L 0.638 2.487 L 0 2.692 Z M 1.187 1.359 L 0.743 0.815 L 0.696 1.517 Z" fill="rgb(255, 255, 255)" height="2.6921999999999997px" id="zqIwoDefS" transform="translate(11.461 12.95)" width="2.449399999999999px"/><path d="M 0 1.291 L 0.005 0 L 0.652 0.003 L 0.647 1.281 C 0.646 1.612 0.813 1.771 1.069 1.772 C 1.325 1.773 1.494 1.622 1.495 1.3 L 1.5 0.006 L 2.147 0.009 L 2.142 1.283 C 2.139 2.026 1.714 2.349 1.06 2.347 C 0.407 2.344 -0.003 2.011 0 1.291 Z" fill="rgb(255, 255, 255)" height="2.3468155367493093px" id="iUUyn_Ra9" transform="translate(14.969 12.42)" width="2.1472153056419003px"/><path d="M 0.66 0.736 L 0 0.534 L 0.163 0 L 2.092 0.589 L 1.929 1.123 L 1.269 0.922 L 0.761 2.587 L 0.152 2.401 Z" fill="rgb(255, 255, 255)" height="2.5869px" id="go8gb4WvD" transform="translate(18.789 12.75)" width="2.0921999999999983px"/><path d="M 1.274 0 L 1.805 0.353 L 1.328 1.07 L 2.009 1.523 L 2.486 0.806 L 3.016 1.159 L 1.742 3.074 L 1.212 2.721 L 1.696 1.993 L 1.015 1.54 L 0.531 2.268 L 0 1.915 Z" fill="rgb(255, 255, 255)" height="3.074px" id="oGnlqTRpC" transform="translate(21.336 14.085)" width="3.016400000000001px"/><path d="M 2.195 0.449 L 2.199 0.455 C 2.609 0.973 2.523 1.723 1.966 2.163 C 1.409 2.603 0.669 2.514 0.26 1.995 L 0.256 1.99 C -0.154 1.472 -0.068 0.722 0.489 0.282 C 1.046 -0.158 1.786 -0.069 2.195 0.449 Z M 0.762 1.582 L 0.766 1.587 C 0.972 1.847 1.339 1.926 1.615 1.708 C 1.888 1.492 1.896 1.125 1.69 0.865 L 1.686 0.86 C 1.481 0.6 1.113 0.521 0.84 0.737 C 0.564 0.955 0.556 1.321 0.762 1.582 Z" fill="rgb(255, 255, 255)" height="2.4448110781620302px" id="o6SS_oj2P" transform="translate(22.289 34.564)" width="2.454976523932326px"/><path d="M 2.298 2.512 L 1.722 2.725 L 0 0.893 L 0.641 0.656 L 0.941 0.983 L 1.773 0.675 L 1.784 0.233 L 2.413 0 Z M 1.285 1.384 L 1.753 1.908 L 1.769 1.205 Z" fill="rgb(255, 255, 255)" height="2.725200000000001px" id="qhUk95Lv0" transform="translate(18.586 36.145)" width="2.4125000000000014px"/><path d="M 2.141 1.005 L 2.198 2.295 L 1.552 2.324 L 1.495 1.047 C 1.481 0.715 1.306 0.565 1.05 0.576 C 0.794 0.588 0.633 0.746 0.648 1.068 L 0.705 2.361 L 0.058 2.389 L 0.002 1.116 C -0.031 0.374 0.378 0.031 1.031 0.002 C 1.685 -0.027 2.109 0.286 2.141 1.005 Z" fill="rgb(255, 255, 255)" height="2.3894252761859676px" id="NA5NLFc0E" transform="translate(15.445 37.215)" width="2.1981253795822333px"/><path d="M 1.427 1.847 L 2.093 2.027 L 1.948 2.566 L 0 2.041 L 0.146 1.502 L 0.812 1.681 L 1.266 0 L 1.881 0.166 Z" fill="rgb(255, 255, 255)" height="2.566499999999998px" id="FAsIVIX2m" transform="translate(11.664 36.794)" width="2.093300000000001px"/><path d="M 1.795 3.049 L 1.248 2.721 L 1.691 1.983 L 0.989 1.562 L 0.547 2.3 L 0 1.973 L 1.182 0 L 1.729 0.328 L 1.28 1.077 L 1.982 1.498 L 2.431 0.748 L 2.978 1.076 Z" fill="rgb(255, 255, 255)" height="3.0486999999999966px" id="S8pEKUUYf" transform="translate(8.148 35.125)" width="2.9775599999999987px"/><path d="M 13.44 29.32 C 10.88 29.32 8.573 28.733 6.52 27.56 C 4.493 26.36 2.893 24.653 1.72 22.44 C 0.573 20.227 0 17.64 0 14.68 C 0 11.773 0.573 9.213 1.72 7 C 2.893 4.76 4.493 3.04 6.52 1.84 C 8.573 0.613 10.88 0 13.44 0 C 16 0 18.293 0.613 20.32 1.84 C 22.373 3.067 23.987 4.8 25.16 7.04 C 26.333 9.253 26.92 11.8 26.92 14.68 C 26.92 17.613 26.333 20.187 25.16 22.4 C 23.987 24.613 22.373 26.32 20.32 27.52 C 18.293 28.72 16 29.32 13.44 29.32 Z M 13.44 25.76 C 15.227 25.76 16.8 25.32 18.16 24.44 C 19.547 23.56 20.613 22.293 21.36 20.64 C 22.107 18.96 22.48 16.973 22.48 14.68 C 22.48 12.44 22.093 10.48 21.32 8.8 C 20.573 7.12 19.52 5.84 18.16 4.96 C 16.8 4.053 15.227 3.6 13.44 3.6 C 11.653 3.6 10.08 4.053 8.72 4.96 C 7.36 5.84 6.293 7.12 5.52 8.8 C 4.773 10.453 4.4 12.413 4.4 14.68 C 4.4 16.947 4.773 18.92 5.52 20.6 C 6.267 22.253 7.32 23.533 8.68 24.44 C 10.067 25.32 11.653 25.76 13.44 25.76 Z M 54.264 28.68 L 49.545 28.68 L 46.465 20.6 L 34.145 20.6 L 31.105 28.68 L 26.585 28.68 L 37.905 0.68 L 42.905 0.68 Z M 35.505 17.04 L 45.145 17.04 L 41.225 6.76 L 40.345 4.24 C 40.078 5.067 39.758 5.907 39.385 6.76 Z M 62.26 29.32 C 60.1 29.32 58.393 28.653 57.14 27.32 C 55.913 25.987 55.3 24.093 55.3 21.64 L 55.3 9.32 L 59.3 9.32 L 59.3 20.88 C 59.3 24.4 60.66 26.16 63.38 26.16 C 64.846 26.16 65.993 25.653 66.82 24.64 C 67.646 23.6 68.06 22.16 68.06 20.32 L 68.06 9.32 L 71.98 9.32 L 71.98 28.68 L 68.1 28.68 L 68.1 27.64 C 68.1 26.893 68.113 26.347 68.14 26 C 67.66 27.013 66.9 27.827 65.86 28.44 C 64.846 29.027 63.646 29.32 62.26 29.32 Z M 83.551 28.96 C 81.764 28.96 80.351 28.48 79.311 27.52 C 78.271 26.533 77.751 25.013 77.751 22.96 L 77.751 12.52 L 73.831 12.52 L 73.831 9.32 L 77.751 9.32 L 77.751 2.68 L 81.751 2.68 L 81.751 9.32 L 86.031 9.32 L 86.031 12.52 L 81.751 12.52 L 81.751 22.48 C 81.751 24.533 82.698 25.56 84.591 25.56 C 85.044 25.56 85.524 25.52 86.031 25.44 L 86.031 28.64 C 85.231 28.853 84.404 28.96 83.551 28.96 Z M 88.516 28.68 L 88.516 0.68 L 92.476 0.68 L 92.476 10.24 C 92.476 10.987 92.463 11.573 92.436 12 C 92.97 11.013 93.756 10.213 94.796 9.6 C 95.836 8.987 97.023 8.68 98.356 8.68 C 100.57 8.68 102.29 9.373 103.516 10.76 C 104.77 12.12 105.396 14.013 105.396 16.44 L 105.396 28.68 L 101.436 28.68 L 101.436 17 C 101.436 13.56 100.063 11.84 97.316 11.84 C 95.876 11.84 94.703 12.347 93.796 13.36 C 92.916 14.373 92.476 15.627 92.476 17.12 L 92.476 28.68 Z" fill="rgb(163, 163, 163)" height="29.32px" id="bLd0GR104" transform="translate(49.729 11.32)" width="105.39619720458984px"/></svg>