<svg display="block" role="presentation" viewBox="0 0 150 52" xmlns="http://www.w3.org/2000/svg"><g d="M 0 32 L 0 0 L 31.135 0 L 31.135 32 Z M 17.126 0.224 L 16.486 8.112 C 16.183 8.077 15.881 8.06 15.569 8.06 C 15.18 8.06 14.799 8.086 14.428 8.147 L 14.064 4.324 C 14.056 4.203 14.151 4.099 14.272 4.099 L 14.921 4.099 L 14.609 0.233 C 14.601 0.112 14.696 0.008 14.808 0.008 L 16.927 0.008 C 17.048 0.008 17.143 0.112 17.126 0.233 Z M 11.79 0.614 L 13.883 8.242 C 13.199 8.398 12.551 8.648 11.954 8.977 L 10.302 5.509 C 10.25 5.405 10.302 5.275 10.415 5.232 L 11.029 5.007 L 9.411 1.479 C 9.359 1.375 9.411 1.245 9.524 1.202 L 11.513 0.475 C 11.625 0.432 11.746 0.501 11.781 0.614 Z M 6.903 2.811 L 11.478 9.262 C 10.899 9.643 10.371 10.093 9.922 10.612 L 7.18 7.913 C 7.093 7.827 7.102 7.688 7.189 7.611 L 7.69 7.195 L 4.966 4.436 C 4.879 4.35 4.888 4.212 4.983 4.134 L 6.6 2.776 C 6.696 2.698 6.825 2.715 6.895 2.811 Z M 9.576 11.044 C 9.161 11.589 8.823 12.194 8.572 12.843 L 5.078 11.243 C 4.966 11.2 4.923 11.061 4.983 10.957 L 5.312 10.395 L 1.8 8.735 C 1.697 8.683 1.653 8.553 1.714 8.449 L 2.769 6.616 C 2.83 6.512 2.968 6.477 3.063 6.547 Z M 0.477 11.528 C 0.495 11.407 0.616 11.338 0.728 11.364 L 8.382 13.362 C 8.183 14.011 8.071 14.694 8.053 15.403 L 4.222 15.092 C 4.101 15.083 4.015 14.971 4.04 14.849 L 4.153 14.209 L 0.287 13.846 C 0.166 13.838 0.088 13.725 0.105 13.604 L 0.469 11.52 Z M 0.183 16.7 L 8.062 15.974 C 8.097 16.674 8.235 17.357 8.451 17.997 L 4.75 19.018 C 4.637 19.044 4.516 18.975 4.499 18.854 L 4.386 18.214 L 0.633 19.191 C 0.52 19.217 0.399 19.148 0.382 19.027 L 0.01 16.942 C -0.007 16.821 0.071 16.709 0.192 16.7 Z M 1.42 22.183 C 1.359 22.08 1.403 21.95 1.506 21.898 L 8.65 18.508 C 8.918 19.148 9.282 19.745 9.714 20.281 L 6.583 22.512 C 6.488 22.581 6.35 22.555 6.289 22.452 L 5.96 21.881 L 2.769 24.086 C 2.674 24.155 2.536 24.121 2.475 24.017 L 1.411 22.183 Z M 10.086 20.696 C 10.553 21.197 11.098 21.639 11.686 22.002 L 9.506 25.167 C 9.437 25.271 9.299 25.288 9.204 25.21 L 8.702 24.787 L 6.453 27.952 C 6.384 28.047 6.255 28.064 6.159 27.987 L 4.533 26.629 C 4.438 26.551 4.43 26.413 4.516 26.326 L 10.077 20.696 Z M 8.979 29.734 C 8.866 29.691 8.815 29.561 8.866 29.457 L 12.162 22.261 C 12.767 22.573 13.424 22.806 14.108 22.936 L 13.139 26.655 C 13.113 26.767 12.983 26.836 12.871 26.793 L 12.257 26.568 L 11.228 30.313 C 11.193 30.426 11.072 30.495 10.959 30.452 L 8.97 29.725 Z M 15.569 23.091 C 15.958 23.091 16.339 23.066 16.711 23.005 L 17.074 26.828 C 17.083 26.949 16.988 27.053 16.866 27.053 L 16.218 27.053 L 16.529 30.919 C 16.546 31.04 16.451 31.143 16.33 31.143 L 14.211 31.143 C 14.099 31.143 14.004 31.04 14.012 30.919 L 14.652 23.031 C 14.955 23.074 15.258 23.091 15.569 23.091 Z M 18.977 8.864 C 18.371 8.562 17.723 8.328 17.031 8.19 L 17.999 4.471 C 18.034 4.359 18.155 4.289 18.268 4.333 L 18.882 4.557 L 19.911 0.813 C 19.945 0.7 20.066 0.631 20.179 0.674 L 22.168 1.401 C 22.281 1.444 22.332 1.565 22.281 1.677 Z M 26.622 4.817 L 21.061 10.447 C 20.594 9.946 20.058 9.504 19.461 9.141 L 21.641 5.976 C 21.71 5.881 21.848 5.855 21.943 5.933 L 22.445 6.356 L 24.693 3.191 C 24.763 3.096 24.901 3.079 24.988 3.156 L 26.613 4.514 C 26.709 4.592 26.709 4.73 26.631 4.817 Z M 29.623 9.254 L 22.479 12.644 C 22.203 12.004 21.848 11.407 21.416 10.871 L 24.546 8.64 C 24.642 8.562 24.78 8.596 24.841 8.7 L 25.169 9.262 L 28.361 7.057 C 28.456 6.996 28.594 7.022 28.655 7.126 L 29.718 8.96 C 29.779 9.063 29.744 9.193 29.632 9.245 Z M 30.756 12.116 L 31.119 14.201 C 31.137 14.322 31.059 14.426 30.938 14.443 L 23.059 15.178 C 23.024 14.469 22.886 13.794 22.67 13.154 L 26.371 12.134 C 26.484 12.099 26.605 12.177 26.622 12.298 L 26.735 12.938 L 30.488 11.961 C 30.601 11.935 30.722 12.004 30.739 12.125 Z M 30.393 19.762 L 22.739 17.764 C 22.938 17.115 23.05 16.432 23.068 15.723 L 26.899 16.034 C 27.02 16.051 27.098 16.155 27.081 16.276 L 26.968 16.916 L 30.834 17.28 C 30.955 17.297 31.033 17.401 31.016 17.522 L 30.652 19.606 C 30.635 19.727 30.514 19.796 30.402 19.77 Z M 28.361 24.527 C 28.3 24.631 28.162 24.657 28.066 24.596 L 21.554 20.099 C 21.969 19.554 22.306 18.949 22.557 18.3 L 26.051 19.9 C 26.164 19.952 26.207 20.082 26.146 20.186 L 25.818 20.748 L 29.329 22.408 C 29.433 22.46 29.476 22.59 29.416 22.694 Z M 19.643 21.872 C 20.222 21.5 20.741 21.042 21.199 20.523 L 23.941 23.221 C 24.028 23.308 24.028 23.446 23.932 23.524 L 23.431 23.939 L 26.155 26.698 C 26.233 26.785 26.233 26.923 26.138 27.001 L 24.521 28.359 C 24.434 28.436 24.296 28.419 24.226 28.324 L 19.651 21.872 Z M 19.608 30.659 C 19.496 30.702 19.375 30.633 19.34 30.521 L 17.247 22.893 C 17.93 22.737 18.579 22.486 19.176 22.158 L 20.828 25.626 C 20.879 25.738 20.828 25.868 20.715 25.902 L 20.101 26.127 L 21.718 29.656 C 21.77 29.768 21.718 29.889 21.606 29.933 L 19.617 30.659 Z" fill="transparent" height="32px" id="qGdxPe4ev" transform="translate(0.93 10)" width="31.1351px"><path d="M 0 32 L 0 0 L 31.135 0 L 31.135 32 Z" fill="transparent" height="32px" id="KepWb_CGM" width="31.1351px"/><path d="M 17.118 0.216 L 16.478 8.104 C 16.175 8.069 15.873 8.052 15.561 8.052 C 15.172 8.052 14.792 8.078 14.42 8.138 L 14.057 4.316 C 14.048 4.195 14.143 4.091 14.264 4.091 L 14.913 4.091 L 14.601 0.225 C 14.593 0.104 14.688 0 14.8 0 L 16.919 0 C 17.04 0 17.135 0.104 17.118 0.225 Z M 11.782 0.605 L 13.875 8.234 C 13.192 8.389 12.543 8.64 11.946 8.969 L 10.294 5.501 C 10.242 5.397 10.294 5.267 10.407 5.224 L 11.021 4.999 L 9.404 1.47 C 9.352 1.367 9.404 1.237 9.516 1.194 L 11.505 0.467 C 11.618 0.424 11.739 0.493 11.773 0.605 Z M 6.895 2.802 L 11.471 9.254 C 10.891 9.635 10.364 10.084 9.914 10.603 L 7.172 7.905 C 7.086 7.818 7.094 7.68 7.181 7.602 L 7.682 7.187 L 4.958 4.428 C 4.872 4.342 4.88 4.203 4.975 4.125 L 6.593 2.768 C 6.688 2.69 6.818 2.707 6.887 2.802 Z M 9.568 11.036 C 9.153 11.58 8.815 12.186 8.565 12.835 L 5.071 11.235 C 4.958 11.191 4.915 11.053 4.975 10.949 L 5.304 10.387 L 1.793 8.726 C 1.689 8.675 1.646 8.545 1.706 8.441 L 2.761 6.608 C 2.822 6.504 2.96 6.469 3.055 6.538 Z M 0.469 11.52 C 0.487 11.399 0.608 11.33 0.72 11.356 L 8.374 13.354 C 8.175 14.002 8.063 14.685 8.046 15.395 L 4.214 15.083 C 4.093 15.075 4.007 14.962 4.033 14.841 L 4.145 14.201 L 0.279 13.838 C 0.158 13.829 0.08 13.717 0.098 13.596 L 0.461 11.511 Z M 0.175 16.692 L 8.054 15.965 C 8.089 16.666 8.227 17.349 8.443 17.989 L 4.742 19.01 C 4.629 19.036 4.508 18.966 4.491 18.845 L 4.379 18.205 L 0.625 19.183 C 0.513 19.209 0.392 19.139 0.374 19.018 L 0.002 16.934 C -0.015 16.813 0.063 16.7 0.184 16.692 Z M 1.412 22.175 C 1.352 22.071 1.395 21.942 1.499 21.89 L 8.642 18.5 C 8.911 19.14 9.274 19.736 9.706 20.272 L 6.575 22.504 C 6.48 22.573 6.342 22.547 6.281 22.443 L 5.953 21.872 L 2.761 24.078 C 2.666 24.147 2.528 24.112 2.467 24.009 L 1.403 22.175 Z M 10.078 20.688 C 10.545 21.189 11.09 21.63 11.678 21.993 L 9.499 25.159 C 9.429 25.263 9.291 25.28 9.196 25.202 L 8.694 24.778 L 6.446 27.944 C 6.376 28.039 6.247 28.056 6.152 27.978 L 4.526 26.62 C 4.431 26.543 4.422 26.404 4.508 26.318 L 10.069 20.688 Z M 8.971 29.725 C 8.859 29.682 8.807 29.552 8.859 29.449 L 12.154 22.253 C 12.759 22.564 13.417 22.798 14.1 22.928 L 13.131 26.647 C 13.105 26.759 12.975 26.828 12.863 26.785 L 12.249 26.56 L 11.22 30.305 C 11.185 30.417 11.064 30.487 10.952 30.443 L 8.962 29.717 Z M 15.561 23.083 C 15.95 23.083 16.331 23.057 16.703 22.997 L 17.066 26.819 C 17.075 26.94 16.98 27.044 16.859 27.044 L 16.21 27.044 L 16.521 30.91 C 16.539 31.031 16.443 31.135 16.322 31.135 L 14.203 31.135 C 14.091 31.135 13.996 31.031 14.005 30.91 L 14.645 23.023 C 14.947 23.066 15.25 23.083 15.561 23.083 Z M 18.969 8.856 C 18.363 8.553 17.715 8.32 17.023 8.182 L 17.992 4.463 C 18.026 4.35 18.147 4.281 18.26 4.324 L 18.874 4.549 L 19.903 0.804 C 19.937 0.692 20.059 0.623 20.171 0.666 L 22.16 1.392 C 22.273 1.436 22.325 1.557 22.273 1.669 Z M 26.614 4.809 L 21.053 10.439 C 20.586 9.937 20.05 9.496 19.453 9.133 L 21.633 5.968 C 21.702 5.872 21.84 5.846 21.935 5.924 L 22.437 6.348 L 24.686 3.183 C 24.755 3.088 24.893 3.07 24.98 3.148 L 26.606 4.506 C 26.701 4.584 26.701 4.722 26.623 4.809 Z M 29.615 9.245 L 22.472 12.636 C 22.195 11.996 21.84 11.399 21.408 10.863 L 24.539 8.631 C 24.634 8.554 24.772 8.588 24.833 8.692 L 25.161 9.254 L 28.353 7.049 C 28.448 6.988 28.586 7.014 28.647 7.118 L 29.711 8.951 C 29.771 9.055 29.737 9.185 29.624 9.237 Z M 30.748 12.108 L 31.112 14.192 C 31.129 14.313 31.051 14.417 30.93 14.435 L 23.051 15.17 C 23.016 14.46 22.878 13.786 22.662 13.146 L 26.363 12.125 C 26.476 12.091 26.597 12.169 26.614 12.29 L 26.727 12.93 L 30.48 11.952 C 30.593 11.926 30.714 11.996 30.731 12.117 Z M 30.385 19.753 L 22.731 17.756 C 22.93 17.107 23.042 16.424 23.06 15.715 L 26.891 16.026 C 27.012 16.043 27.09 16.147 27.073 16.268 L 26.96 16.908 L 30.826 17.271 C 30.947 17.289 31.025 17.392 31.008 17.513 L 30.645 19.598 C 30.627 19.719 30.506 19.788 30.394 19.762 Z M 28.353 24.519 C 28.292 24.623 28.154 24.649 28.059 24.588 L 21.546 20.091 C 21.961 19.546 22.299 18.941 22.549 18.292 L 26.043 19.892 C 26.156 19.944 26.199 20.074 26.139 20.177 L 25.81 20.74 L 29.321 22.4 C 29.425 22.452 29.468 22.582 29.408 22.685 Z M 19.635 21.864 C 20.214 21.492 20.733 21.034 21.192 20.515 L 23.933 23.213 C 24.02 23.3 24.02 23.438 23.925 23.516 L 23.423 23.931 L 26.147 26.69 C 26.225 26.776 26.225 26.915 26.13 26.992 L 24.513 28.35 C 24.426 28.428 24.288 28.411 24.219 28.316 L 19.643 21.864 Z M 19.6 30.651 C 19.488 30.694 19.367 30.625 19.332 30.512 L 17.239 22.884 C 17.922 22.729 18.571 22.478 19.168 22.149 L 20.82 25.617 C 20.872 25.73 20.82 25.86 20.707 25.894 L 20.093 26.119 L 21.711 29.648 C 21.762 29.76 21.711 29.881 21.598 29.924 L 19.609 30.651 Z" fill="rgb(163, 163, 163)" height="31.13509946899414px" id="GxbeHS9BH" transform="translate(0.008 0.008)" width="31.113998034894827px"/></g><path d="M 13.44 29.32 C 10.88 29.32 8.573 28.733 6.52 27.56 C 4.493 26.36 2.893 24.653 1.72 22.44 C 0.573 20.227 0 17.64 0 14.68 C 0 11.773 0.573 9.213 1.72 7 C 2.893 4.76 4.493 3.04 6.52 1.84 C 8.573 0.613 10.88 0 13.44 0 C 16 0 18.293 0.613 20.32 1.84 C 22.373 3.067 23.987 4.8 25.16 7.04 C 26.333 9.253 26.92 11.8 26.92 14.68 C 26.92 17.613 26.333 20.187 25.16 22.4 C 23.987 24.613 22.373 26.32 20.32 27.52 C 18.293 28.72 16 29.32 13.44 29.32 Z M 13.44 25.76 C 15.227 25.76 16.8 25.32 18.16 24.44 C 19.547 23.56 20.613 22.293 21.36 20.64 C 22.107 18.96 22.48 16.973 22.48 14.68 C 22.48 12.44 22.093 10.48 21.32 8.8 C 20.573 7.12 19.52 5.84 18.16 4.96 C 16.8 4.053 15.227 3.6 13.44 3.6 C 11.653 3.6 10.08 4.053 8.72 4.96 C 7.36 5.84 6.293 7.12 5.52 8.8 C 4.773 10.453 4.4 12.413 4.4 14.68 C 4.4 16.947 4.773 18.92 5.52 20.6 C 6.267 22.253 7.32 23.533 8.68 24.44 C 10.067 25.32 11.653 25.76 13.44 25.76 Z M 53.45 28.68 L 47.77 28.68 L 36.81 15.96 L 34.77 18.08 L 34.77 28.68 L 30.57 28.68 L 30.57 0.68 L 34.77 0.68 L 34.77 12.8 C 34.956 12.56 35.53 11.933 36.49 10.92 L 46.33 0.68 L 51.65 0.68 L 39.65 13.04 Z M 65.258 28.68 L 61.018 28.68 L 61.018 4.24 L 51.458 4.24 L 51.458 0.68 L 74.778 0.68 L 74.778 4.24 L 65.258 4.24 Z M 98.57 28.68 L 93.85 28.68 L 90.77 20.6 L 78.45 20.6 L 75.41 28.68 L 70.89 28.68 L 82.21 0.68 L 87.21 0.68 Z M 79.81 17.04 L 89.45 17.04 L 85.53 6.76 L 84.65 4.24 C 84.383 5.067 84.063 5.907 83.69 6.76 Z" fill="rgb(163, 163, 163)" height="29.32px" id="vH7HiBqe4" transform="translate(49.822 11.32)" width="98.5695034790039px"/></svg>