<svg display="block" role="presentation" viewBox="0 0 128 52" xmlns="http://www.w3.org/2000/svg"><path d="M 25.333 8.667 C 25.333 13.453 21.453 17.333 16.667 17.333 C 15.667 17.333 14.707 17.164 13.814 16.853 L 11.448 19.219 C 10.948 19.719 10.269 20 9.562 20 L 8.667 20 C 8.299 20 8 20.298 8 20.667 L 8 21.562 C 8 22.269 7.719 22.948 7.219 23.448 L 6.505 24.162 C 5.755 24.912 4.737 25.333 3.676 25.333 L 1.333 25.333 C 0.597 25.333 0 24.736 0 24 L 0 21.657 C 0 20.596 0.421 19.579 1.172 18.828 L 8.48 11.519 C 8.169 10.626 8 9.666 8 8.667 C 8 3.88 11.88 0 16.667 0 C 21.453 0 25.333 3.88 25.333 8.667 Z M 16.667 6.667 C 15.562 6.667 14.667 7.562 14.667 8.667 C 14.667 9.771 15.562 10.667 16.667 10.667 C 17.771 10.667 18.667 9.771 18.667 8.667 C 18.667 7.562 17.771 6.667 16.667 6.667 Z" fill="rgb(163, 163, 163)" height="25.3333px" id="J4BmtaZz9" transform="translate(4.5 12.667)" width="25.3333px"/><path d="M 11.68 29.32 C 9.36 29.32 7.333 28.92 5.6 28.12 C 3.867 27.32 2.507 26.173 1.52 24.68 C 0.56 23.187 0.053 21.44 0 19.44 L 4.36 19.44 C 4.467 21.413 5.2 22.96 6.56 24.08 C 7.947 25.2 9.693 25.76 11.8 25.76 C 13.827 25.76 15.427 25.36 16.6 24.56 C 17.773 23.733 18.36 22.6 18.36 21.16 C 18.36 19.987 17.92 19.053 17.04 18.36 C 16.16 17.667 14.867 17.147 13.16 16.8 L 8.76 15.84 C 6.44 15.333 4.56 14.427 3.12 13.12 C 1.68 11.813 0.96 10.12 0.96 8.04 C 0.96 6.493 1.413 5.12 2.32 3.92 C 3.227 2.693 4.467 1.733 6.04 1.04 C 7.64 0.347 9.44 0 11.44 0 C 14.613 0 17.147 0.8 19.04 2.4 C 20.96 3.973 22 6.093 22.16 8.76 L 17.8 8.76 C 17.693 7.213 17.067 5.973 15.92 5.04 C 14.773 4.08 13.227 3.6 11.28 3.6 C 9.573 3.6 8.147 3.987 7 4.76 C 5.88 5.507 5.32 6.48 5.32 7.68 C 5.32 8.8 5.72 9.693 6.52 10.36 C 7.32 11 8.533 11.507 10.16 11.88 L 15 12.92 C 17.373 13.427 19.253 14.333 20.64 15.64 C 22.027 16.92 22.72 18.613 22.72 20.72 C 22.72 22.347 22.28 23.813 21.4 25.12 C 20.52 26.427 19.24 27.453 17.56 28.2 C 15.907 28.947 13.947 29.32 11.68 29.32 Z M 35.922 29.32 C 33.602 29.32 31.576 28.92 29.842 28.12 C 28.109 27.32 26.749 26.173 25.762 24.68 C 24.802 23.187 24.296 21.44 24.242 19.44 L 28.602 19.44 C 28.709 21.413 29.442 22.96 30.802 24.08 C 32.189 25.2 33.936 25.76 36.042 25.76 C 38.069 25.76 39.669 25.36 40.842 24.56 C 42.016 23.733 42.602 22.6 42.602 21.16 C 42.602 19.987 42.162 19.053 41.282 18.36 C 40.402 17.667 39.109 17.147 37.402 16.8 L 33.002 15.84 C 30.682 15.333 28.802 14.427 27.362 13.12 C 25.922 11.813 25.202 10.12 25.202 8.04 C 25.202 6.493 25.656 5.12 26.562 3.92 C 27.469 2.693 28.709 1.733 30.282 1.04 C 31.882 0.347 33.682 0 35.682 0 C 38.856 0 41.389 0.8 43.282 2.4 C 45.202 3.973 46.242 6.093 46.402 8.76 L 42.042 8.76 C 41.936 7.213 41.309 5.973 40.162 5.04 C 39.016 4.08 37.469 3.6 35.522 3.6 C 33.816 3.6 32.389 3.987 31.242 4.76 C 30.122 5.507 29.562 6.48 29.562 7.68 C 29.562 8.8 29.962 9.693 30.762 10.36 C 31.562 11 32.776 11.507 34.402 11.88 L 39.242 12.92 C 41.616 13.427 43.496 14.333 44.882 15.64 C 46.269 16.92 46.962 18.613 46.962 20.72 C 46.962 22.347 46.522 23.813 45.642 25.12 C 44.762 26.427 43.482 27.453 41.802 28.2 C 40.149 28.947 38.189 29.32 35.922 29.32 Z M 62.324 29.32 C 59.764 29.32 57.458 28.733 55.404 27.56 C 53.378 26.36 51.778 24.653 50.604 22.44 C 49.458 20.227 48.884 17.64 48.884 14.68 C 48.884 11.773 49.458 9.213 50.604 7 C 51.778 4.76 53.378 3.04 55.404 1.84 C 57.458 0.613 59.764 0 62.324 0 C 64.884 0 67.178 0.613 69.204 1.84 C 71.258 3.067 72.871 4.8 74.044 7.04 C 75.218 9.253 75.804 11.8 75.804 14.68 C 75.804 17.613 75.218 20.187 74.044 22.4 C 72.871 24.613 71.258 26.32 69.204 27.52 C 67.178 28.72 64.884 29.32 62.324 29.32 Z M 62.324 25.76 C 64.111 25.76 65.684 25.32 67.044 24.44 C 68.431 23.56 69.498 22.293 70.244 20.64 C 70.991 18.96 71.364 16.973 71.364 14.68 C 71.364 12.44 70.978 10.48 70.204 8.8 C 69.458 7.12 68.404 5.84 67.044 4.96 C 65.684 4.053 64.111 3.6 62.324 3.6 C 60.538 3.6 58.964 4.053 57.604 4.96 C 56.244 5.84 55.178 7.12 54.404 8.8 C 53.658 10.453 53.284 12.413 53.284 14.68 C 53.284 16.947 53.658 18.92 54.404 20.6 C 55.151 22.253 56.204 23.533 57.564 24.44 C 58.951 25.32 60.538 25.76 62.324 25.76 Z" fill="rgb(163, 163, 163)" height="29.32px" id="rVg6T5WSK" transform="translate(49.86 11.32)" width="75.8039994140625px"/></svg>