<svg display="block" role="presentation" viewBox="0 0 156 52" xmlns="http://www.w3.org/2000/svg"><path d="M 17.333 6.667 L 17.333 9.333 C 19.542 9.333 21.333 11.124 21.333 13.333 L 21.333 22.667 C 21.333 24.876 19.542 26.667 17.333 26.667 L 4 26.667 C 1.791 26.667 0 24.876 0 22.667 L 0 13.333 C 0 11.124 1.791 9.333 4 9.333 L 4 6.667 C 4 2.985 6.985 0 10.667 0 C 14.349 0 17.333 2.985 17.333 6.667 Z M 14.667 9.333 L 14.667 6.667 C 14.667 4.457 12.876 2.667 10.667 2.667 C 8.458 2.667 6.667 4.457 6.667 6.667 L 6.667 9.333 Z M 9.333 16 L 9.333 20 C 9.333 20.736 9.93 21.333 10.667 21.333 C 11.403 21.333 12 20.736 12 20 L 12 16 C 12 15.264 11.403 14.667 10.667 14.667 C 9.93 14.667 9.333 15.264 9.333 16 Z" fill="rgb(163, 163, 163)" height="26.6667px" id="lfkMdFg0A" transform="translate(5.328 12.667)" width="21.33338px"/><path d="M 11.68 29.32 C 9.36 29.32 7.333 28.92 5.6 28.12 C 3.867 27.32 2.507 26.173 1.52 24.68 C 0.56 23.187 0.053 21.44 0 19.44 L 4.36 19.44 C 4.467 21.413 5.2 22.96 6.56 24.08 C 7.947 25.2 9.693 25.76 11.8 25.76 C 13.827 25.76 15.427 25.36 16.6 24.56 C 17.773 23.733 18.36 22.6 18.36 21.16 C 18.36 19.987 17.92 19.053 17.04 18.36 C 16.16 17.667 14.867 17.147 13.16 16.8 L 8.76 15.84 C 6.44 15.333 4.56 14.427 3.12 13.12 C 1.68 11.813 0.96 10.12 0.96 8.04 C 0.96 6.493 1.413 5.12 2.32 3.92 C 3.227 2.693 4.467 1.733 6.04 1.04 C 7.64 0.347 9.44 0 11.44 0 C 14.613 0 17.147 0.8 19.04 2.4 C 20.96 3.973 22 6.093 22.16 8.76 L 17.8 8.76 C 17.693 7.213 17.067 5.973 15.92 5.04 C 14.773 4.08 13.227 3.6 11.28 3.6 C 9.573 3.6 8.147 3.987 7 4.76 C 5.88 5.507 5.32 6.48 5.32 7.68 C 5.32 8.8 5.72 9.693 6.52 10.36 C 7.32 11 8.533 11.507 10.16 11.88 L 15 12.92 C 17.373 13.427 19.253 14.333 20.64 15.64 C 22.027 16.92 22.72 18.613 22.72 20.72 C 22.72 22.347 22.28 23.813 21.4 25.12 C 20.52 26.427 19.24 27.453 17.56 28.2 C 15.907 28.947 13.947 29.32 11.68 29.32 Z M 38.082 29.32 C 35.522 29.32 33.216 28.733 31.162 27.56 C 29.136 26.36 27.536 24.653 26.362 22.44 C 25.216 20.227 24.642 17.64 24.642 14.68 C 24.642 11.773 25.216 9.213 26.362 7 C 27.536 4.76 29.136 3.04 31.162 1.84 C 33.216 0.613 35.522 0 38.082 0 C 40.642 0 42.936 0.613 44.962 1.84 C 47.016 3.067 48.629 4.8 49.802 7.04 C 50.976 9.253 51.562 11.8 51.562 14.68 C 51.562 17.613 50.976 20.187 49.802 22.4 C 48.629 24.613 47.016 26.32 44.962 27.52 C 42.936 28.72 40.642 29.32 38.082 29.32 Z M 38.082 25.76 C 39.869 25.76 41.442 25.32 42.802 24.44 C 44.189 23.56 45.256 22.293 46.002 20.64 C 46.749 18.96 47.122 16.973 47.122 14.68 C 47.122 12.44 46.736 10.48 45.962 8.8 C 45.216 7.12 44.162 5.84 42.802 4.96 C 41.442 4.053 39.869 3.6 38.082 3.6 C 36.296 3.6 34.722 4.053 33.362 4.96 C 32.002 5.84 30.936 7.12 30.162 8.8 C 29.416 10.453 29.042 12.413 29.042 14.68 C 29.042 16.947 29.416 18.92 30.162 20.6 C 30.909 22.253 31.962 23.533 33.322 24.44 C 34.709 25.32 36.296 25.76 38.082 25.76 Z M 67.092 29.32 C 64.399 29.32 62.025 28.733 59.972 27.56 C 57.945 26.36 56.372 24.653 55.252 22.44 C 54.132 20.2 53.572 17.56 53.572 14.52 C 53.572 11.64 54.159 9.107 55.332 6.92 C 56.532 4.707 58.159 3 60.212 1.8 C 62.292 0.6 64.625 0 67.212 0 C 69.452 0 71.452 0.427 73.212 1.28 C 74.972 2.107 76.385 3.28 77.452 4.8 C 78.545 6.32 79.185 8.053 79.372 10 L 74.812 10 C 74.492 8 73.665 6.44 72.332 5.32 C 71.025 4.173 69.292 3.6 67.132 3.6 C 65.345 3.6 63.759 4.04 62.372 4.92 C 60.985 5.8 59.905 7.067 59.132 8.72 C 58.385 10.347 58.012 12.28 58.012 14.52 C 58.012 16.787 58.399 18.773 59.172 20.48 C 59.945 22.16 61.012 23.467 62.372 24.4 C 63.759 25.307 65.332 25.76 67.092 25.76 C 69.279 25.76 71.065 25.173 72.452 24 C 73.865 22.8 74.745 21.213 75.092 19.24 L 79.412 19.24 C 79.039 22.333 77.759 24.787 75.572 26.6 C 73.385 28.413 70.559 29.32 67.092 29.32 Z M 90.22 0.68 L 94.46 0.68 L 94.46 28.68 L 90.22 28.68 Z M 99.813 0.68 L 104.053 0.68 L 104.053 28.68 L 99.813 28.68 Z" fill="rgb(163, 163, 163)" height="29.32px" id="PdLfSU4kI" transform="translate(49.36 11.32)" width="104.05300354003907px"/></svg>